<svg id="Capa_1" enable-background="new 0 0 512 512" height="512" viewBox="0 0 512 512" width="512" xmlns="http://www.w3.org/2000/svg"><g><path d="m498.49 338.26c-34.26 101.03-129.89 173.74-242.49 173.74-71.96 0-137-29.7-183.51-77.51-26.26-26.99-46.62-59.77-58.98-96.23l241.022-92.3z" fill="#3f5882"/><path d="m438.95 435.05c-30.18 30.85-68.1 54.09-110.62 66.59h-43.84c-5.42 0-10.33-2.2-13.88-5.75-3.56-3.55-5.75-8.46-5.75-13.88 0-10.84 8.78-19.63 19.63-19.63h39.34c-10.85 0-19.63-8.79-19.63-19.63s8.78-19.63 19.63-19.63h37.01c-5.42 0-10.33-2.2-13.88-5.75s-5.75-8.46-5.75-13.88c0-10.84 8.79-19.63 19.63-19.63h23.04c5.42 0 10.33 2.2 13.88 5.75s5.75 8.46 5.75 13.88c0 10.84-8.79 19.63-19.63 19.63h37.01c8.11 0 15.07 4.92 18.06 11.93z" fill="#31446c"/><path d="m117.08 414.86c0 5.42-2.19 10.33-5.75 13.88-3.55 3.55-8.46 5.75-13.88 5.75h-24.96c-26.26-26.99-46.62-59.77-58.98-96.23h27.13c-.45 4.65-2.53 8.83-5.66 11.96-3.55 3.55-8.46 5.75-13.88 5.75h37.01c10.85 0 19.63 8.79 19.63 19.63s-8.78 19.63-19.63 19.63h39.34c10.85 0 19.63 8.79 19.63 19.63z" fill="#31446c"/><path d="m512 256c0 28.78-4.75 56.44-13.51 82.26h-484.98c-8.76-25.82-13.51-53.48-13.51-82.26 0-141.38 114.62-256 256-256s256 114.62 256 256z" fill="#90d8f9"/><g><path d="m235.078 354.753c0 3.945-.301 7.823-.892 11.603-5.583 35.885-36.602 63.337-74.048 63.337s-68.474-27.452-74.058-63.337c-.591-3.78-.892-7.658-.892-11.603 0-41.391 33.558-74.95 74.949-74.95 41.393.001 74.941 33.56 74.941 74.95z" fill="#31446c"/><path d="m235.078 354.753c0 3.945-.301 7.823-.892 11.603h-148.105c-.591-3.78-.892-7.658-.892-11.603 0-41.391 33.558-74.95 74.949-74.95 41.392.001 74.94 33.56 74.94 74.95z" fill="#202e45"/><path d="m167.874 429.294c-2.549.262-5.128.398-7.745.398-41.391 0-74.94-33.549-74.94-74.94s33.549-74.95 74.94-74.95c2.617 0 5.196.136 7.745.398-37.756 3.867-67.214 35.769-67.214 74.552s29.458 70.675 67.214 74.542z" fill="#202e45"/><circle cx="160.135" cy="354.752" fill="#f9f6f9" r="36.909"/><path d="m123.232 354.758c0 20.385 16.518 36.903 36.903 36.903 2.724 0 5.37-.291 7.919-.853-16.576-3.616-28.993-18.379-28.993-36.05s12.417-32.434 28.993-36.059c-2.549-.562-5.196-.853-7.919-.853-20.386-.001-36.903 16.527-36.903 36.912z" fill="#dddaec"/></g><g><path d="m491.021 354.753c0 3.945-.301 7.823-.892 11.603-5.583 35.885-36.602 63.337-74.048 63.337s-68.474-27.452-74.058-63.337c-.591-3.78-.892-7.658-.892-11.603 0-41.391 33.559-74.95 74.949-74.95 41.392.001 74.941 33.56 74.941 74.95z" fill="#31446c"/><path d="m491.021 354.753c0 3.945-.301 7.823-.892 11.603h-148.105c-.591-3.78-.892-7.658-.892-11.603 0-41.391 33.559-74.95 74.949-74.95 41.391.001 74.94 33.56 74.94 74.95z" fill="#202e45"/><path d="m423.816 429.294c-2.549.262-5.128.398-7.745.398-41.391 0-74.94-33.549-74.94-74.94s33.549-74.95 74.94-74.95c2.617 0 5.196.136 7.745.398-37.756 3.867-67.214 35.769-67.214 74.552s29.459 70.675 67.214 74.542z" fill="#202e45"/><circle cx="416.077" cy="354.752" fill="#f9f6f9" r="36.909"/><path d="m379.174 354.758c0 20.385 16.518 36.903 36.903 36.903 2.724 0 5.37-.291 7.919-.853-16.576-3.616-28.993-18.379-28.993-36.05s12.417-32.434 28.993-36.059c-2.549-.562-5.196-.853-7.919-.853-20.385-.001-36.903 16.527-36.903 36.912z" fill="#dddaec"/></g><path d="m491.624 354.753h-63.007v-99.92c11.196 1.677 21.791 5.196 31.465 10.236 25.145 13.096 44.095 36.467 51.288 64.549 3.266 12.757-6.573 25.135-19.746 25.135z" fill="#da4a54"/><path d="m95.371 286.599h-36.369c-21.277 0-38.588-17.31-38.588-38.588v-25.3h19.387v25.3c0 10.588 8.613 19.201 19.201 19.201h36.368v19.387z" fill="#dddaec"/><path d="m83.739 233.389h181.481v121.363h-181.481z" fill="#c63d4f"/><path d="m237.329 354.752c13.173 0 23.009-12.377 19.742-25.138-11.174-43.65-50.771-75.917-97.904-75.917s-86.73 32.268-97.904 75.917c-3.267 12.761 6.57 25.138 19.742 25.138z" fill="#da4a54"/><path d="m404.115 140.876h40.616v69.627h-40.616z" fill="#da4a54"/><g fill="#c63d4f"><path d="m404.115 189.225h40.616v21.277h-40.616z"/><path d="m104.457 329.614c-3.267 12.756 6.572 25.135 19.745 25.135h-43.193c-13.173 0-23.012-12.379-19.746-25.135 11.177-43.649 50.774-75.919 97.904-75.919 7.416 0 14.637.795 21.597 2.317-37.281 8.113-66.885 36.815-76.307 73.602z"/><path d="m456.339 354.753h-99.737l5.965-22.878 58.311-30.47 7.738-46.572c11.196 1.677 21.791 5.196 31.465 10.236-10.236 13.533-29.584 47.828-3.742 89.684z"/></g><path d="m448.213 210.502h-6.706v-69.627h6.706c9.114 0 16.503 7.388 16.503 16.503v36.622c0 9.114-7.388 16.502-16.503 16.502z" fill="#f9f6f9"/><path d="m464.712 172.717v21.277c0 9.112-7.387 16.508-16.498 16.508h-6.708v-21.277h6.708c9.111 0 16.498-7.386 16.498-16.508z" fill="#dddaec"/><g><path d="m132.995 62.867h-111.211c-11.448 0-20.729 9.281-20.729 20.729v105.067c0 11.448 9.281 20.729 20.729 20.729h111.211c11.448 0 20.729-9.281 20.729-20.729v-105.067c0-11.448-9.281-20.729-20.729-20.729z" fill="#ffc250"/><path d="m33.128 209.393h-11.342c-11.449 0-20.73-9.281-20.73-20.73v-105.067c0-11.445 9.281-20.727 20.73-20.727h11.342c-11.449 0-20.727 9.281-20.727 20.727v105.066c.001 11.449 9.278 20.731 20.727 20.731z" fill="#ebb044"/><g><path d="m50.865 62.867v42.734c0 4.883 3.959 8.842 8.842 8.842s8.842-3.959 8.842-8.842c0 4.883 3.959 8.842 8.842 8.842 4.883 0 8.842-3.959 8.842-8.842 0 4.883 3.958 8.842 8.842 8.842 4.883 0 8.842-3.959 8.842-8.842v-42.734z" fill="#f9f6f9"/></g><path d="m85.131 147h42.668c4.794 0 8.68 3.886 8.68 8.68v27.543c0 4.794-3.886 8.68-8.68 8.68h-42.668c-4.794 0-8.68-3.886-8.68-8.68v-27.543c0-4.794 3.886-8.68 8.68-8.68z" fill="#f9f6f9"/><g fill="#31446c"><path d="m123.008 166.379h-33.086c-2.61 0-4.727-2.116-4.727-4.727 0-2.61 2.116-4.727 4.727-4.727h33.086c2.61 0 4.727 2.116 4.727 4.727 0 2.611-2.116 4.727-4.727 4.727z"/><path d="m123.008 181.977h-33.086c-2.61 0-4.727-2.116-4.727-4.727 0-2.61 2.116-4.727 4.727-4.727h33.086c2.61 0 4.727 2.116 4.727 4.727 0 2.611-2.116 4.727-4.727 4.727z"/></g></g><path d="m340.355 168.597h23.145v-60.188h-23.145c-7.869 0-14.247 6.379-14.247 14.247v31.693c-.001 7.87 6.378 14.248 14.247 14.248z" fill="#c63d4f"/><path d="m371.173 108.405h-16.702v118.914c0 24.3-7.903 47.9-22.341 67.446-7.605 10.296-13.303 22.087-16.569 34.853-3.267 12.756 6.562 25.135 19.736 25.135h19.173c40.949 0 74.145-33.196 74.145-74.145v-25.775-88.986c.001-31.724-25.717-57.442-57.442-57.442z" fill="#da4a54"/><path d="m336.422 329.614c-3.267 12.756 6.562 25.135 19.736 25.135h-20.86c-13.173 0-23.002-12.379-19.736-25.135 3.267-12.766 8.966-24.553 16.576-34.857 14.433-19.542 22.334-43.146 22.334-67.437v-118.92h16.702c1.396 0 2.782.048 4.159.145v118.773c0 24.292-7.9 47.895-22.343 67.437-7.602 10.305-13.301 22.092-16.568 34.859z" fill="#c63d4f"/><path d="m16.475 236.211h77.901v-26.998h-77.901c-7.455 0-13.499 6.044-13.499 13.499 0 7.455 6.043 13.499 13.499 13.499z" fill="#f9f6f9"/><path d="m34.062 232.25c2.433 2.443 5.807 3.955 9.538 3.955h-27.131c-3.722 0-7.095-1.512-9.538-3.955-2.443-2.433-3.955-5.807-3.955-9.538 0-7.454 6.039-13.503 13.493-13.503h27.132c-7.454 0-13.493 6.048-13.493 13.503 0 3.732 1.512 7.105 3.954 9.538z" fill="#dddaec"/><circle cx="344.803" cy="123.469" fill="#31446c" r="23.209"/><circle cx="344.803" cy="123.469" fill="#202e45" r="11.868"/><path d="m254.532 196.964h-155.915c-13.024 0-23.582 10.558-23.582 23.582v1.833c0 13.024 10.558 23.582 23.582 23.582h155.915c13.024 0 23.582-10.558 23.582-23.582v-1.833c-.001-13.024-10.559-23.582-23.582-23.582z" fill="#31446c"/><path d="m156.642 245.964h-58.025c-13.028 0-23.584-10.566-23.584-23.584v-1.832c0-13.028 10.556-23.584 23.584-23.584h58.025c-13.028 0-23.584 10.556-23.584 23.584v1.832c0 13.018 10.556 23.584 23.584 23.584z" fill="#202e45"/><path d="m374.817 327.192h-139.737v27.56h121.522z" fill="#da4a54"/><path d="m385.776 140.085c-3.48 0-6.301-2.821-6.301-6.301v-48.689l-38.298-23.933c-2.952-1.844-3.849-5.731-2.005-8.682 1.845-2.952 5.731-3.848 8.682-2.004l41.26 25.783c1.843 1.151 2.962 3.171 2.962 5.343v52.181c.001 3.481-2.82 6.302-6.3 6.302z" fill="#c63d4f"/><path d="m342.26 26.379c-9.079 0-16.44 7.36-16.44 16.44v26.818c0 9.079 7.36 16.44 16.44 16.44 9.079 0 16.44-7.36 16.44-16.44v-26.818c0-9.079-7.361-16.44-16.44-16.44z" fill="#da4a54"/><path d="m325.82 42.819v26.818c0 5.949 3.171 11.144 7.903 14.03 4.733-2.886 7.903-8.081 7.903-14.03v-26.818c0-5.949-3.17-11.144-7.903-14.03-4.732 2.886-7.903 8.081-7.903 14.03z" fill="#f9f6f9"/><path d="m231.54 508.92c0 .64-.03 1.28-.1 1.91-27.21-2.58-53.17-9.43-77.22-19.86h59.37c4.95 0 9.44 2.01 12.69 5.26s5.26 7.73 5.26 12.69z" fill="#31446c"/></g></svg>