<?xml version="1.0" encoding="iso-8859-1"?>
<!-- Generator: Adobe Illustrator 19.0.0, SVG Export Plug-In . SVG Version: 6.00 Build 0)  -->
<svg version="1.1" id="Capa_1" xmlns="http://www.w3.org/2000/svg" xmlns:xlink="http://www.w3.org/1999/xlink" x="0px" y="0px"
	 viewBox="0 0 512 512" style="enable-background:new 0 0 512 512;" xml:space="preserve">
<linearGradient id="SVGID_1_" gradientUnits="userSpaceOnUse" x1="18.7989" y1="639.6881" x2="-45.0461" y2="575.8411" gradientTransform="matrix(8 0 0 -8 343 5088.6001)">
	<stop  offset="0" style="stop-color:#F7941E"/>
	<stop  offset="1" style="stop-color:#EE2A7B"/>
</linearGradient>
<path style="fill:url(#SVGID_1_);" d="M504,0.4h-72c-4,0-6.4,2.4-8,5.6l-30.4,114.4H8c-2.4,0-4.8,0.8-6.4,3.2C0,125.2,0,127.6,0,130
	l40,200c0.8,4,4,6.4,8,6.4h320v72H80c-3.2,0-5.6,1.6-7.2,4l-17.6,32c-2.4,4-0.8,8.8,3.2,11.2c0.8,0.8,2.4,0.8,3.2,0.8
	c2.4,0,5.6-1.6,7.2-4l16-28H376c4.8,0,8-3.2,8-8v-87.2l8-66.4c0.8-4-2.4-8-7.2-8.8c-4.8-0.8-8,2.4-8.8,7.2l-7.2,59.2H54.4l-36.8-184
	h373.6l-4.8,39.2c-0.8,4,2.4,8,7.2,8.8h0.8c4,0,7.2-3.2,8-7.2L408,130l30.4-113.6H504c4.8,0,8-3.2,8-8S508.8,0.4,504,0.4z"/>
<linearGradient id="SVGID_2_" gradientUnits="userSpaceOnUse" x1="27.6353" y1="630.8517" x2="-36.2097" y2="567.0048" gradientTransform="matrix(8 0 0 -8 343 5088.6001)">
	<stop  offset="0" style="stop-color:#F7941E"/>
	<stop  offset="1" style="stop-color:#EE2A7B"/>
</linearGradient>
<path style="fill:url(#SVGID_2_);" d="M391.2,200.4c-4-0.8-8,2.4-8.8,7.2l-1.6,16c-0.8,4,2.4,8,7.2,8.8h0.8c4,0,7.2-3.2,8-7.2
	l1.6-16C399.2,205.2,396,201.2,391.2,200.4z"/>
<linearGradient id="SVGID_3_" gradientUnits="userSpaceOnUse" x1="28.8427" y1="629.6443" x2="-35.0023" y2="565.7974" gradientTransform="matrix(8 0 0 -8 343 5088.6001)">
	<stop  offset="0" style="stop-color:#F7941E"/>
	<stop  offset="1" style="stop-color:#EE2A7B"/>
</linearGradient>
<path style="fill:url(#SVGID_3_);" d="M150.4,438c-20,0-36.8,16.8-36.8,36.8s16.8,36.8,36.8,36.8s36.8-16.8,36.8-36.8
	S170.4,438,150.4,438z M150.4,494.8c-11.2,0-20.8-9.6-20.8-20.8c0-11.2,9.6-20.8,20.8-20.8s20.8,9.6,20.8,20.8
	C171.2,485.2,161.6,494.8,150.4,494.8z"/>
<linearGradient id="SVGID_4_" gradientUnits="userSpaceOnUse" x1="39.5437" y1="618.9451" x2="-24.3003" y2="555.0991" gradientTransform="matrix(8 0 0 -8 343 5088.6001)">
	<stop  offset="0" style="stop-color:#F7941E"/>
	<stop  offset="1" style="stop-color:#EE2A7B"/>
</linearGradient>
<path style="fill:url(#SVGID_4_);" d="M321.6,438c-20,0-36.8,16.8-36.8,36.8s16.8,36.8,36.8,36.8s36.8-16.8,36.8-36.8
	S342.4,438,321.6,438z M321.6,494.8c-11.2,0-20.8-9.6-20.8-20.8c0-11.2,9.6-20.8,20.8-20.8s20.8,9.6,20.8,20.8
	C342.4,485.2,333.6,494.8,321.6,494.8z"/>
<linearGradient id="SVGID_5_" gradientUnits="userSpaceOnUse" x1="13.5514" y1="644.95" x2="-50.2936" y2="581.108" gradientTransform="matrix(8 0 0 -8 343 5088.6001)">
	<stop  offset="0" style="stop-color:#F7941E"/>
	<stop  offset="1" style="stop-color:#EE2A7B"/>
</linearGradient>
<path style="fill:url(#SVGID_5_);" d="M368,168.4c0-4.8-3.2-8-8-8H64c-4.8,0-8,3.2-8,8s3.2,8,8,8h296
	C364.8,176.4,368,173.2,368,168.4z"/>
<linearGradient id="SVGID_6_" gradientUnits="userSpaceOnUse" x1="16.0407" y1="642.4433" x2="-47.8013" y2="578.5963" gradientTransform="matrix(8 0 0 -8 343 5088.6001)">
	<stop  offset="0" style="stop-color:#F7941E"/>
	<stop  offset="1" style="stop-color:#EE2A7B"/>
</linearGradient>
<path style="fill:url(#SVGID_6_);" d="M360,208.4c0-4.8-3.2-8-8-8H72c-4.8,0-8,3.2-8,8s3.2,8,8,8h280
	C356.8,216.4,360,213.2,360,208.4z"/>
<linearGradient id="SVGID_7_" gradientUnits="userSpaceOnUse" x1="18.5443" y1="639.9427" x2="-45.3007" y2="576.1007" gradientTransform="matrix(8 0 0 -8 343 5088.6001)">
	<stop  offset="0" style="stop-color:#F7941E"/>
	<stop  offset="1" style="stop-color:#EE2A7B"/>
</linearGradient>
<path style="fill:url(#SVGID_7_);" d="M352,248.4c0-4.8-3.2-8-8-8H80c-4.8,0-8,3.2-8,8s3.2,8,8,8h264
	C348.8,256.4,352,253.2,352,248.4z"/>
<linearGradient id="SVGID_8_" gradientUnits="userSpaceOnUse" x1="18.0404" y1="640.4436" x2="-45.8016" y2="576.5966" gradientTransform="matrix(8 0 0 -8 343 5088.6001)">
	<stop  offset="0" style="stop-color:#F7941E"/>
	<stop  offset="1" style="stop-color:#EE2A7B"/>
</linearGradient>
<path style="fill:url(#SVGID_8_);" d="M88,280.4c-4.8,0-8,3.2-8,8s3.2,8,8,8h152c4.8,0,8-3.2,8-8s-3.2-8-8-8H88z"/>
<linearGradient id="SVGID_9_" gradientUnits="userSpaceOnUse" x1="21.5447" y1="636.9423" x2="-42.3003" y2="573.1003" gradientTransform="matrix(8 0 0 -8 343 5088.6001)">
	<stop  offset="0" style="stop-color:#F7941E"/>
	<stop  offset="1" style="stop-color:#EE2A7B"/>
</linearGradient>
<path style="fill:url(#SVGID_9_);" d="M120,400.4c4.8,0,8-3.2,8-8s-3.2-8-8-8h-8c-4.8,0-8,3.2-8,8s3.2,8,8,8H120z"/>
<linearGradient id="SVGID_10_" gradientUnits="userSpaceOnUse" x1="23.5446" y1="634.9424" x2="-40.3004" y2="571.1004" gradientTransform="matrix(8 0 0 -8 343 5088.6001)">
	<stop  offset="0" style="stop-color:#F7941E"/>
	<stop  offset="1" style="stop-color:#EE2A7B"/>
</linearGradient>
<path style="fill:url(#SVGID_10_);" d="M152,400.4c4.8,0,8-3.2,8-8s-3.2-8-8-8h-8c-4.8,0-8,3.2-8,8s3.2,8,8,8H152z"/>
<linearGradient id="SVGID_11_" gradientUnits="userSpaceOnUse" x1="19.5447" y1="638.9423" x2="-44.3003" y2="575.1003" gradientTransform="matrix(8 0 0 -8 343 5088.6001)">
	<stop  offset="0" style="stop-color:#F7941E"/>
	<stop  offset="1" style="stop-color:#EE2A7B"/>
</linearGradient>
<path style="fill:url(#SVGID_11_);" d="M80,400.4h8c4.8,0,8-3.2,8-8s-3.2-8-8-8h-8c-4.8,0-8,3.2-8,8S75.2,400.4,80,400.4z"/>
<linearGradient id="SVGID_12_" gradientUnits="userSpaceOnUse" x1="26.5442" y1="631.9427" x2="-37.3008" y2="568.1008" gradientTransform="matrix(8 0 0 -8 343 5088.6001)">
	<stop  offset="0" style="stop-color:#F7941E"/>
	<stop  offset="1" style="stop-color:#EE2A7B"/>
</linearGradient>
<path style="fill:url(#SVGID_12_);" d="M296,280.4c-4.8,0-8,3.2-8,8s3.2,8,8,8h8c4.8,0,8-3.2,8-8s-3.2-8-8-8H296z"/>
<linearGradient id="SVGID_13_" gradientUnits="userSpaceOnUse" x1="28.5442" y1="629.9428" x2="-35.3008" y2="566.1008" gradientTransform="matrix(8 0 0 -8 343 5088.6001)">
	<stop  offset="0" style="stop-color:#F7941E"/>
	<stop  offset="1" style="stop-color:#EE2A7B"/>
</linearGradient>
<path style="fill:url(#SVGID_13_);" d="M328,280.4c-4.8,0-8,3.2-8,8s3.2,8,8,8h8c4.8,0,8-3.2,8-8s-3.2-8-8-8H328z"/>
<linearGradient id="SVGID_14_" gradientUnits="userSpaceOnUse" x1="24.5443" y1="633.9427" x2="-39.3007" y2="570.1007" gradientTransform="matrix(8 0 0 -8 343 5088.6001)">
	<stop  offset="0" style="stop-color:#F7941E"/>
	<stop  offset="1" style="stop-color:#EE2A7B"/>
</linearGradient>
<path style="fill:url(#SVGID_14_);" d="M264,280.4c-4.8,0-8,3.2-8,8s3.2,8,8,8h8c4.8,0,8-3.2,8-8s-3.2-8-8-8H264z"/>
<g>
</g>
<g>
</g>
<g>
</g>
<g>
</g>
<g>
</g>
<g>
</g>
<g>
</g>
<g>
</g>
<g>
</g>
<g>
</g>
<g>
</g>
<g>
</g>
<g>
</g>
<g>
</g>
<g>
</g>
</svg>
