<svg id="Flat" height="512" viewBox="0 0 512 512" width="512" xmlns="http://www.w3.org/2000/svg"><path d="m72 96h368a16 16 0 0 1 16 16v240a0 0 0 0 1 0 0h-400a0 0 0 0 1 0 0v-240a16 16 0 0 1 16-16z" fill="#dadcde"/><path d="m88 128h336v224h-336z" fill="#3397e8"/><path d="m88 128h336v32h-336z" fill="#e9eef2"/><path d="m24 352h464a0 0 0 0 1 0 0v32a32 32 0 0 1 -32 32h-400a32 32 0 0 1 -32-32v-32a0 0 0 0 1 0 0z" fill="#d0d2d4"/><path d="m278.111 384h-44.222a16 16 0 0 1 -14.311-8.845l-11.578-23.155h96l-11.578 23.155a16 16 0 0 1 -14.311 8.845z" fill="#e9eef2"/><path d="m362.286 304h-68.572c-7.574 0-13.714-7.163-13.714-16 0-8.837 6.14-16 13.714-16h68.572c7.574 0 13.714 7.163 13.714 16 0 8.837-6.14 16-13.714 16z" fill="#eb423f"/><path d="m360 336-16-48 48 16z" fill="#e9eef2"/><circle cx="120" cy="144" fill="#eb423f" r="8"/><circle cx="152" cy="144" fill="#f7b030" r="8"/><circle cx="184" cy="144" fill="#b1bd70" r="8"/><path d="m208 232a8 8 0 0 1 -8-8v-16a8 8 0 0 0 -16 0v16a8 8 0 0 1 -16 0v-16a24 24 0 0 1 48 0v16a8 8 0 0 1 -8 8z" fill="#4f5659"/><g fill="#2978b8"><path d="m344 216h-80a8 8 0 0 1 0-16h80a8 8 0 0 1 0 16z"/><path d="m312 248h-48a8 8 0 0 1 0-16h48a8 8 0 0 1 0 16z"/><path d="m392 216h-16a8 8 0 0 1 0-16h16a8 8 0 0 1 0 16z"/><path d="m392 248h-48a8 8 0 0 1 0-16h48a8 8 0 0 1 0 16z"/></g><path d="m232 320h-80l8-96h64z" fill="#c7312e"/><path d="m200 320h-80l8-96h64z" fill="#eb423f"/><path d="m176 232a8 8 0 0 1 -8-8v-16a8 8 0 0 0 -16 0v16a8 8 0 0 1 -16 0v-16a24 24 0 0 1 48 0v16a8 8 0 0 1 -8 8z" fill="#4f5659"/></svg>