<?xml version="1.0" encoding="UTF-8"?>
<svg width="228px" height="214px" viewBox="0 0 228 214" version="1.1" xmlns="http://www.w3.org/2000/svg" xmlns:xlink="http://www.w3.org/1999/xlink">
    <title>Group 172</title>
    <defs>
        <polygon id="path-1" points="0 212.5 227.4945 212.5 227.4945 0.375 0 0.375"></polygon>
        <polygon id="path-3" points="0.0615868833 0.378 3.34080643 0.378 3.34080643 3.46432622 0.0615868833 3.46432622"></polygon>
        <polygon id="path-5" points="0.0104718629 0.132 3.88834479 0.132 3.88834479 3.78190854 0.0104718629 3.78190854"></polygon>
        <polygon id="path-7" points="0.365519859 0.48066735 10.772 0.48066735 10.772 2.6146 0.365519859 2.6146"></polygon>
        <path d="M0.0325,12.2635 C4.801,14.0695 6.813,14.7335 12.416,16 L12.416,16 L12.416,3.9575 C7.103,2.733 4.635,1.4115 0.0325,0.2215 L0.0325,0.2215" id="path-9"></path>
        <path d="M0.0325,12.2635 C4.801,14.0695 6.813,14.7335 12.416,16 L12.416,16 L12.416,3.9575 C7.103,2.7325 4.635,1.4115 0.0325,0.221 L0.0325,0.221" id="path-11"></path>
        <path d="M0.0325,12.2635 C4.801,14.0695 6.813,14.7335 12.416,16 L12.416,16 L12.416,3.9575 C7.103,2.7325 4.635,1.4115 0.0325,0.221 L0.0325,0.221" id="path-13"></path>
        <path d="M0.0325,12.2635 C4.801,14.0695 6.813,14.7335 12.416,16 L12.416,16 L12.416,3.9575 C7.103,2.7325 4.635,1.4115 0.0325,0.221 L0.0325,0.221" id="path-15"></path>
        <path d="M0.0325,12.2635 C4.801,14.0695 6.813,14.7335 12.416,16 L12.416,16 L12.416,3.9575 C7.103,2.7325 4.635,1.4115 0.0325,0.221 L0.0325,0.221" id="path-17"></path>
        <path d="M0.0325,12.2635 C4.801,14.0695 6.813,14.7335 12.416,16 L12.416,16 L12.416,3.9575 C7.103,2.7325 4.635,1.4115 0.0325,0.221 L0.0325,0.221" id="path-19"></path>
        <path d="M0.0325,12.2635 C4.801,14.0695 6.813,14.7335 12.416,16 L12.416,16 L12.416,3.9575 C7.103,2.7325 4.635,1.4115 0.0325,0.221 L0.0325,0.221" id="path-21"></path>
        <path d="M0.0325,12.2635 C4.801,14.0695 6.813,14.7335 12.416,16 L12.416,16 L12.416,3.9575 C7.103,2.7325 4.635,1.4115 0.0325,0.221 L0.0325,0.221" id="path-23"></path>
        <path d="M0.0325,12.2635 C4.801,14.0695 6.813,14.7335 12.416,16 L12.416,16 L12.416,3.9575 C7.103,2.7325 4.635,1.4115 0.0325,0.221 L0.0325,0.221" id="path-25"></path>
        <path d="M0.0325,12.2635 C4.801,14.0695 6.813,14.7335 12.416,16 L12.416,16 L12.416,3.9575 C7.103,2.7325 4.635,1.4115 0.0325,0.221 L0.0325,0.221" id="path-27"></path>
    </defs>
    <g id="-----Landing-Covid-02-----" stroke="none" stroke-width="1" fill="none" fill-rule="evenodd">
        <g id="L_Coronavirus_Landing_v03_adomicilio" transform="translate(-455.000000, -1831.000000)">
            <g id="REPARTO-A-DOMICILIO" transform="translate(284.000000, 1407.000000)">
                <g id="EL-REPARTO" transform="translate(86.000000, 424.000000)">
                    <g id="Group-6">
                        <g id="Group-172" transform="translate(85.000000, 0.000000)">
                            <g id="Group-83" transform="translate(0.000000, 0.125000)">
                                <path d="M58.6421,129.0659 C58.4796,129.1149 58.2786,129.9784 57.8421,129.6124 C57.4056,129.2459 56.4556,127.3659 56.4556,127.3659 C56.4556,127.3659 57.6741,128.4159 58.6431,129.0659 L58.6421,129.0659 Z M60.0156,128.6609 C59.8886,128.4539 59.4706,128.0099 59.1396,127.6094 C58.8871,127.3039 58.5796,126.9374 58.2316,126.5554 C57.3381,125.5759 56.1736,124.4909 54.9641,124.0539 C53.5371,123.5384 51.7966,122.8069 51.3026,122.5974 L43.2931,101.7844 C43.2931,101.7844 44.1681,91.2964 44.0821,84.5369 C41.1651,86.5049 38.7526,86.7729 35.1516,85.5464 C35.2356,93.0189 35.4126,103.7164 35.7536,106.0234 C36.2346,109.2759 46.0756,124.9249 48.0901,128.1024 C48.6921,129.6864 49.4836,131.6814 49.7716,132.0024 C50.2586,132.5449 51.8081,134.1214 51.8081,134.1214 C51.8081,134.1214 53.3951,135.1194 53.9341,134.7169 C54.3886,134.3774 55.2216,134.1994 55.6481,133.9479 C56.3881,133.5114 56.2791,133.0889 56.2791,133.0889 C56.2791,133.0889 56.7986,133.4189 57.4941,132.7984 C58.1896,132.1784 57.7406,131.6674 57.7406,131.6674 C57.7406,131.6674 58.1911,131.7794 58.9141,131.0489 C59.4121,130.5464 59.3041,129.7354 59.0456,129.3204 C59.2816,129.4574 59.4836,129.5499 59.6206,129.5659 C60.0721,129.6199 60.3321,129.1779 60.0156,128.6609 L60.0156,128.6609 Z" id="Fill-1" fill="#FCD4A4"></path>
                                <path d="M47.65335,125.2954 C45.63835,122.1179 38.27985,109.2759 37.79935,106.0234 C37.46535,103.7649 37.28835,93.4704 37.20285,86.0279 C36.52835,85.9399 35.84485,85.7824 35.15185,85.5464 C35.23585,93.0189 35.41285,103.7164 35.75385,106.0234 C36.23485,109.2759 46.07585,124.9249 48.09085,128.1024 C48.69235,129.6864 48.25535,126.8794 47.65335,125.2954" id="Fill-3" fill="#FDD5A5"></path>
                                <path d="M13.67385,111.56785 C12.75235,110.84835 11.52835,108.90935 10.85385,107.76735 L7.88485,90.84385 L15.42935,77.18035 C12.38685,75.76535 9.52835,74.66085 7.88485,71.63585 C5.34235,76.84735 1.97485,85.55885 0.93885,90.58735 C0.13535,94.48935 4.34535,105.76835 5.62335,109.05785 L5.56585,109.08435 C5.56585,109.08435 5.46885,114.59635 5.72785,115.23835 C5.98735,115.88085 6.86485,117.78585 6.86485,117.78585 C6.86485,117.78585 7.98135,119.16685 8.62235,118.95085 C9.16235,118.76835 9.24485,118.34785 9.24485,118.34785 C9.24485,118.34785 9.99585,118.84485 10.47935,118.73535 C11.31785,118.54585 11.36635,118.12435 11.36635,118.12435 C11.36635,118.12435 11.73035,118.57935 12.59285,118.20735 C13.45535,117.83535 13.21985,117.23335 13.21985,117.23335 C13.21985,117.23335 13.59735,117.46735 14.52435,117.00135 C15.45185,116.53535 14.63885,112.32135 13.67385,111.56785" id="Fill-5" fill="#FCD4A4"></path>
                                <path d="M13.7129,111.50635 C12.7814,110.78085 11.5454,108.82535 10.8634,107.67485 L10.5259,105.75535 C8.7099,106.38185 6.9484,107.17435 5.1779,107.93085 C5.3304,108.33235 5.4664,108.68635 5.5794,108.97535 L5.5209,109.00235 C5.5209,109.00235 5.4229,114.55985 5.6849,115.20735 C5.9469,115.85485 6.8334,117.77535 6.8334,117.77535 C6.8334,117.77535 7.9619,119.16835 8.6089,118.95035 C9.1544,118.76685 9.2379,118.34285 9.2379,118.34285 C9.2379,118.34285 9.9969,118.84335 10.4854,118.73335 C11.3324,118.54235 11.3814,118.11735 11.3814,118.11735 C11.3814,118.11735 11.7494,118.57635 12.6209,118.20135 C13.4924,117.82585 13.2544,117.21885 13.2544,117.21885 C13.2544,117.21885 13.6354,117.45485 14.5724,116.98485 C15.5094,116.51535 14.6879,112.26635 13.7129,111.50635" id="Fill-7" fill="#62B5CD"></path>
                                <polygon id="Fill-9" fill="#87BECE" points="5.0415 108.4883 10.7925 105.5788 10.533 104.4693 4.5415 107.4998"></polygon>
                                <polygon id="Stroke-11" stroke="#9C9B9B" stroke-linecap="round" stroke-linejoin="round" points="210.46145 148.46775 100.16095 148.46775 118.06045 136.44875 192.56195 136.44875"></polygon>
                                <polygon id="Fill-13" fill="#9C9B9B" points="186.09715 136.5459 185.43515 136.5459 185.43515 10.1444 126.22815 10.1444 126.22815 136.5459 125.56615 136.5459 125.56615 9.4179 186.09715 9.4179"></polygon>
                                <polygon id="Stroke-15" stroke="#9C9B9B" stroke-width="0.5" points="186.09715 136.5459 185.43515 136.5459 185.43515 10.1444 126.22815 10.1444 126.22815 136.5459 125.56615 136.5459 125.56615 9.4179 186.09715 9.4179"></polygon>
                                <mask id="mask-2" fill="white">
                                    <use xlink:href="#path-1"></use>
                                </mask>
                                <g id="Clip-18"></g>
                                <path d="M134.366,90.376 L176.0755,90.376 L176.0755,21.068 L134.366,21.068 L134.366,90.376 Z M133.704,91.103 L176.738,91.103 L176.738,20.3415 L133.704,20.3415 L133.704,91.103 Z" id="Fill-17" fill="#9C9B9B" mask="url(#mask-2)"></path>
                                <path d="M134.366,90.376 L176.0755,90.376 L176.0755,21.068 L134.366,21.068 L134.366,90.376 Z M133.704,91.103 L176.738,91.103 L176.738,20.3415 L133.704,20.3415 L133.704,91.103 Z" id="Stroke-19" stroke="#9C9B9B" stroke-width="0.5" mask="url(#mask-2)"></path>
                                <path d="M134.366,124.222 L176.0755,124.222 L176.0755,99.425 L134.366,99.425 L134.366,124.222 Z M133.704,124.9485 L176.738,124.9485 L176.738,98.698 L133.704,98.698 L133.704,124.9485 Z" id="Fill-20" fill="#9C9B9B" mask="url(#mask-2)"></path>
                                <path d="M134.366,124.222 L176.0755,124.222 L176.0755,99.425 L134.366,99.425 L134.366,124.222 Z M133.704,124.9485 L176.738,124.9485 L176.738,98.698 L133.704,98.698 L133.704,124.9485 Z" id="Stroke-21" stroke="#9C9B9B" stroke-width="0.5" mask="url(#mask-2)"></path>
                                <path d="M118.4468,136.1826 L192.4553,136.1826 L192.3973,1.2266 L118.5043,1.2266 L118.4468,136.1826 Z M193.1173,136.9096 L117.7843,136.9096 L117.8428,0.5001 L193.0593,0.5001 L193.0593,0.8631 L193.1173,136.9096 Z" id="Fill-22" fill="#9C9B9B" mask="url(#mask-2)"></path>
                                <path d="M118.4468,136.1826 L192.4553,136.1826 L192.3973,1.2266 L118.5043,1.2266 L118.4468,136.1826 Z M193.1173,136.9096 L117.7843,136.9096 L117.8428,0.5001 L193.0593,0.5001 L193.0593,0.8631 L193.1173,136.9096 Z" id="Stroke-23" stroke="#9C9B9B" stroke-width="0.5" mask="url(#mask-2)"></path>
                                <polygon id="Fill-24" fill="#9C9B9B" mask="url(#mask-2)" points="183.38915 84.6555 178.54115 84.6555 178.54115 79.9475 179.07065 79.9475 179.07065 84.074 182.85915 84.074 182.85915 79.9475 183.38915 79.9475"></polygon>
                                <polygon id="Stroke-25" stroke="#9C9B9B" stroke-width="0.5" mask="url(#mask-2)" points="183.38915 84.6555 178.54115 84.6555 178.54115 79.9475 179.07065 79.9475 179.07065 84.074 182.85915 84.074 182.85915 79.9475 183.38915 79.9475"></polygon>
                                <polygon id="Fill-26" fill="#9C9B9B" mask="url(#mask-2)" points="183.38915 76.5293 182.85915 76.5293 182.85915 69.8168 179.07065 69.8168 179.07065 76.5283 178.54115 76.5283 178.54115 69.2358 183.38915 69.2358"></polygon>
                                <polygon id="Stroke-27" stroke="#9C9B9B" stroke-width="0.5" mask="url(#mask-2)" points="183.38915 76.5293 182.85915 76.5293 182.85915 69.8168 179.07065 69.8168 179.07065 76.5283 178.54115 76.5283 178.54115 69.2358 183.38915 69.2358"></polygon>
                                <path d="M180.96485,75.604 C179.64135,75.604 178.56485,76.786 178.56485,78.2385 C178.56485,79.691 179.64135,80.873 180.96485,80.873 C182.28785,80.873 183.36535,79.691 183.36535,78.2385 C183.36535,76.786 182.28785,75.604 180.96485,75.604 M180.96485,81.4545 C179.34935,81.4545 178.03535,80.0115 178.03535,78.2385 C178.03535,76.4655 179.34935,75.023 180.96485,75.023 C182.57985,75.023 183.89485,76.4655 183.89485,78.2385 C183.89485,80.0115 182.57985,81.4545 180.96485,81.4545" id="Fill-28" fill="#9C9B9B" mask="url(#mask-2)"></path>
                                <path d="M33.30545,197.1299 C31.13145,197.1299 29.09095,197.4794 27.31545,198.0894 C27.35045,197.8519 27.37395,197.6129 27.37395,197.3699 C27.37395,193.1254 21.82695,189.6849 14.98445,189.6849 C8.14195,189.6849 2.59545,193.1254 2.59545,197.3699 C2.59545,201.6144 8.14195,205.0554 14.98445,205.0554 C17.15845,205.0554 19.19895,204.7054 20.97495,204.0959 C20.93945,204.3324 20.91645,204.5724 20.91645,204.8149 C20.91645,209.0589 26.46295,212.4999 33.30545,212.4999 C40.14795,212.4999 45.69495,209.0589 45.69495,204.8149 C45.69495,200.5704 40.14795,197.1299 33.30545,197.1299" id="Fill-67" fill="#D0D0D0" mask="url(#mask-2)"></path>
                                <path d="M180.96485,75.604 C179.64135,75.604 178.56485,76.786 178.56485,78.2385 C178.56485,79.691 179.64135,80.873 180.96485,80.873 C182.28785,80.873 183.36535,79.691 183.36535,78.2385 C183.36535,76.786 182.28785,75.604 180.96485,75.604 Z M180.96485,81.4545 C179.34935,81.4545 178.03535,80.0115 178.03535,78.2385 C178.03535,76.4655 179.34935,75.023 180.96485,75.023 C182.57985,75.023 183.89485,76.4655 183.89485,78.2385 C183.89485,80.0115 182.57985,81.4545 180.96485,81.4545 Z" id="Stroke-29" stroke="#9C9B9B" stroke-width="0.5" mask="url(#mask-2)"></path>
                                <path d="M181.8906,72.87575 C181.8906,73.43725 181.4761,73.89225 180.9646,73.89225 C180.4536,73.89225 180.0386,73.43725 180.0386,72.87575 C180.0386,72.31475 180.4536,71.85925 180.9646,71.85925 C181.4761,71.85925 181.8906,72.31475 181.8906,72.87575" id="Fill-30" fill="#9C9B9B" mask="url(#mask-2)"></path>
                                <path d="M181.8906,72.87575 C181.8906,73.43725 181.4761,73.89225 180.9646,73.89225 C180.4536,73.89225 180.0386,73.43725 180.0386,72.87575 C180.0386,72.31475 180.4536,71.85925 180.9646,71.85925 C181.4761,71.85925 181.8906,72.31475 181.8906,72.87575 Z" id="Stroke-31" stroke="#9C9B9B" stroke-width="0.5" mask="url(#mask-2)"></path>
                                <path d="M16.35865,62.8628 C15.17515,62.7648 12.63915,62.9188 10.91665,64.4118 C9.19365,65.9048 6.65265,70.7018 6.01565,72.3953 C6.02215,72.4068 6.02965,72.4168 6.03565,72.4283 C3.61565,77.6208 1.18915,84.6983 0.12715,89.0543 C-0.82885,92.9758 3.91615,106.9998 3.91615,106.9998 C3.91615,106.9998 9.13965,104.4108 10.51215,103.6548 L8.37065,90.1188 L15.95615,76.0303 C15.61965,75.8588 15.26815,75.6913 14.90865,75.5238 L18.15015,69.1088 C18.15015,69.1088 20.19815,63.1803 16.35865,62.8628" id="Fill-32" fill="#1D1D1B" mask="url(#mask-2)"></path>
                                <path d="M27.88745,202.12795 C27.34795,202.63245 26.99695,203.73595 26.85745,204.85595 C26.72945,205.88295 27.11845,209.50095 27.11845,209.50095 C27.11845,209.50095 27.93845,209.82595 29.84495,209.96245 C31.75145,210.09845 32.91945,209.44245 32.91945,209.44245 C32.91945,209.44245 34.14445,208.05095 36.65145,206.60295 C39.15845,205.15495 41.35595,203.58745 42.61245,201.78895 C43.80995,200.07545 43.72845,199.29095 43.81745,198.53445 C43.88745,197.93795 43.32795,196.57595 42.03445,196.77945 C40.74145,196.98245 35.44495,198.52645 35.44495,198.52645 C35.44495,198.52645 29.40245,200.71195 27.88745,202.12795" id="Fill-33" fill="#010101" mask="url(#mask-2)"></path>
                                <path d="M27.03175,209.80175 C26.87525,209.55125 27.06425,208.98275 27.03225,208.63075 C27.00025,208.27825 28.79975,209.49325 30.63175,209.31575 C32.46375,209.13875 35.22575,206.19875 36.67125,205.74275 C38.11675,205.28675 41.38675,203.71175 42.42025,202.01075 C44.28675,198.93875 43.44675,197.37025 43.44675,197.37025 C43.44675,197.37025 43.93675,197.47825 43.82325,198.90025 C43.71025,200.32275 43.82225,202.23575 41.99025,203.91325 C40.15825,205.59075 36.94825,206.35125 36.32875,207.26325 C35.70875,208.17525 33.51075,210.70975 31.36475,210.76025 C30.37725,210.78375 29.34225,210.85925 28.55475,210.63575 C27.62975,210.37275 27.24725,210.14625 27.03175,209.80175" id="Fill-34" fill="#FEFEFE" mask="url(#mask-2)"></path>
                                <path d="M39.92015,199.9302 C39.76565,199.9302 39.63815,199.8122 39.63265,199.6612 C39.63215,199.6587 39.60015,199.1702 39.13215,198.6302 C38.67065,198.0972 38.21165,198.0112 38.19265,198.0077 C38.03665,197.9802 37.93215,197.8367 37.95865,197.6857 C37.98515,197.5357 38.13165,197.4332 38.28665,197.4572 C38.31415,197.4617 38.96565,197.5692 39.57415,198.2717 C40.17665,198.9672 40.20715,199.6142 40.20815,199.6412 C40.21415,199.7947 40.08965,199.9247 39.93065,199.9302 L39.92015,199.9302 Z" id="Fill-35" fill="#FEFEFE" mask="url(#mask-2)"></path>
                                <path d="M38.68115,201.5161 C38.52215,201.5161 38.39365,201.3921 38.39265,201.2381 C38.39265,201.2311 38.38465,200.5056 37.97815,199.6221 C37.58715,198.7736 36.43165,198.2626 36.42015,198.2576 C36.27515,198.1946 36.21015,198.0296 36.27515,197.8891 C36.34015,197.7486 36.51065,197.6851 36.65615,197.7491 C36.71165,197.7731 38.02515,198.3541 38.50415,199.3956 C38.96365,200.3941 38.96915,201.2041 38.96915,201.2376 C38.96915,201.3916 38.84065,201.5161 38.68165,201.5161 L38.68115,201.5161 Z" id="Fill-36" fill="#FEFEFE" mask="url(#mask-2)"></path>
                                <path d="M37.0425,202.0044 L37.032,202.0044 C36.873,201.9989 36.749,201.8694 36.7545,201.7154 C36.7545,201.7064 36.7815,200.7529 36.212,200.0949 C35.6005,199.3874 34.388,198.6989 34.376,198.6914 C34.2385,198.6144 34.1925,198.4434 34.2725,198.3099 C34.353,198.1779 34.5295,198.1324 34.6665,198.2099 C34.7195,198.2399 35.978,198.9554 36.654,199.7364 C37.368,200.5619 37.332,201.6889 37.33,201.7369 C37.324,201.8874 37.1965,202.0044 37.0425,202.0044" id="Fill-37" fill="#FEFEFE" mask="url(#mask-2)"></path>
                                <path d="M10.25,193.5874 C9.7105,194.0919 9.359,195.1954 9.2195,196.3154 C9.092,197.3419 9.481,200.9604 9.481,200.9604 C9.481,200.9604 10.301,201.2854 12.2075,201.4214 C14.114,201.5579 15.282,200.9019 15.282,200.9019 C15.282,200.9019 16.507,199.5104 19.0135,198.0624 C21.5205,196.6144 23.718,195.0469 24.975,193.2484 C26.1725,191.5349 26.091,190.7504 26.18,189.9939 C26.25,189.3974 25.6905,188.0354 24.397,188.2389 C23.1035,188.4419 17.8075,189.9859 17.8075,189.9859 C17.8075,189.9859 11.765,192.1709 10.25,193.5874" id="Fill-38" fill="#010101" mask="url(#mask-2)"></path>
                                <path d="M9.39405,201.26125 C9.23805,201.01075 9.42655,200.44225 9.39455,200.09025 C9.36255,199.73775 11.16205,200.95275 12.99405,200.77525 C14.82605,200.59825 17.58805,197.65825 19.03355,197.20225 C20.47905,196.74625 23.74905,195.17125 24.78255,193.47025 C26.64905,190.39825 25.80905,188.82975 25.80905,188.82975 C25.80905,188.82975 26.29905,188.93775 26.18555,190.35975 C26.07255,191.78225 26.18455,193.69525 24.35255,195.37275 C22.52055,197.05025 19.31055,197.81075 18.69105,198.72275 C18.07105,199.63475 15.87305,202.16875 13.72705,202.21975 C12.74005,202.24325 11.70455,202.31875 10.91705,202.09525 C9.99205,201.83225 9.60955,201.60575 9.39405,201.26125" id="Fill-39" fill="#FEFEFE" mask="url(#mask-2)"></path>
                                <path d="M22.2825,191.38965 C22.1285,191.38965 22.0005,191.27115 21.995,191.12015 C21.9945,191.11815 21.963,190.62965 21.4945,190.08915 C21.033,189.55665 20.574,189.47065 20.555,189.46715 C20.3995,189.43965 20.2945,189.29615 20.321,189.14515 C20.3475,188.99465 20.494,188.89265 20.649,188.91665 C20.6765,188.92115 21.328,189.02865 21.9365,189.73115 C22.539,190.42665 22.57,191.07365 22.5705,191.10065 C22.5765,191.25415 22.452,191.38415 22.293,191.38965 L22.2825,191.38965 Z" id="Fill-40" fill="#FEFEFE" mask="url(#mask-2)"></path>
                                <path d="M21.04345,192.9756 C20.88495,192.9756 20.75595,192.8516 20.75545,192.6976 C20.75545,192.6906 20.74695,191.9651 20.34045,191.0816 C19.94945,190.2331 18.79395,189.7221 18.78245,189.7171 C18.63745,189.6541 18.57245,189.4891 18.63745,189.3486 C18.70295,189.2081 18.87295,189.1446 19.01845,189.2086 C19.07395,189.2326 20.38745,189.8136 20.86645,190.8551 C21.32595,191.8536 21.33145,192.6636 21.33145,192.6971 C21.33145,192.8511 21.20295,192.9756 21.04395,192.9756 L21.04345,192.9756 Z" id="Fill-41" fill="#FEFEFE" mask="url(#mask-2)"></path>
                                <path d="M19.4048,193.46385 L19.3943,193.46385 C19.2353,193.45835 19.1113,193.32885 19.1168,193.17485 C19.1168,193.16585 19.1438,192.21235 18.5743,191.55435 C17.9628,190.84685 16.7508,190.15835 16.7383,190.15085 C16.6008,190.07385 16.5548,189.90285 16.6348,189.76935 C16.7153,189.63735 16.8923,189.59135 17.0288,189.66935 C17.0818,189.69935 18.3408,190.41485 19.0163,191.19585 C19.7308,192.02135 19.6943,193.14835 19.6923,193.19635 C19.6863,193.34685 19.5588,193.46385 19.4048,193.46385" id="Fill-42" fill="#FEFEFE" mask="url(#mask-2)"></path>
                                <path d="M19.69705,154.8628 C19.90605,155.1688 20.12805,155.4688 20.36405,155.7628 C20.17405,155.3948 19.94205,155.1118 19.69705,154.8628" id="Fill-43" fill="#1A6B78" mask="url(#mask-2)"></path>
                                <path d="M26.6492,132.41555 L28.1882,112.92105 C27.1292,112.81855 13.3172,111.82055 13.3172,111.82055 L13.2967,153.08505 C13.2967,153.08505 9.3012,165.77005 9.2267,169.26455 C9.1527,172.75955 9.2267,196.31755 9.2267,196.31755 C9.2267,196.31755 9.7397,196.63255 10.7037,196.79605 C10.9997,196.84655 11.3437,196.87905 11.7232,196.88755 C11.5197,187.78055 11.1237,179.29405 12.2087,170.91855 C12.8637,165.86355 14.0572,160.84855 16.1587,155.76255 C17.0377,155.76255 18.5607,153.71105 19.6967,154.86255 C14.8212,147.72955 17.0707,137.41855 17.5322,128.03755 C20.7757,128.99255 23.7622,130.65455 26.6492,132.41555" id="Fill-44" fill="#21425E" mask="url(#mask-2)"></path>
                                <path d="M16.1792,127.6841 C15.9097,132.6126 15.6782,137.7511 15.9572,142.3396 C16.2797,147.6396 17.2837,152.2051 19.6967,154.8621 C19.9422,155.1116 19.9062,155.1691 19.6967,154.8621 C18.5607,153.7111 16.7707,155.3131 15.8912,155.3131 C10.3087,168.8256 11.3967,182.2846 11.7232,196.8876 C12.6122,196.9066 13.7207,196.7776 15.0347,196.3176 C15.9447,195.9986 16.5982,195.5076 17.0612,195.0091 C17.8862,194.1216 18.1092,193.2111 18.1092,193.2111 C18.1092,193.2111 21.6392,169.9031 22.8427,164.4661 C24.0452,159.0296 24.7137,154.8621 24.7137,154.8621 L26.6492,132.4156 C23.3657,130.4116 19.9532,128.5356 16.1792,127.6841" id="Fill-45" fill="#175E7E" mask="url(#mask-2)"></path>
                                <path d="M35.33595,164.04685 C31.42595,152.68885 33.73145,126.89635 34.67295,115.53785 L25.11495,114.76135 L29.58245,162.13085 C29.58245,162.13085 25.84045,174.88785 25.83595,178.38335 C25.83095,181.87885 26.37395,205.43135 26.37395,205.43135 C26.37395,205.43135 26.89295,205.73635 27.85995,205.88235 C27.96295,205.89785 28.07445,205.91035 28.18795,205.92135 C28.72445,191.84885 28.43945,178.33185 32.12745,164.04685 L35.33595,164.04685 Z" id="Fill-46" fill="#21425E" mask="url(#mask-2)"></path>
                                <path d="M32.6343,115.37255 C31.6928,126.73055 31.4258,152.68905 35.3358,164.04705 C34.2668,164.04705 31.6653,163.23655 31.6653,163.23655 C27.9773,177.52155 28.7243,191.84855 28.1878,205.92155 C29.1653,206.02005 30.5128,205.94205 32.1803,205.32305 C33.0843,204.98705 33.7278,204.48405 34.1808,203.97705 C34.9883,203.07405 35.1928,202.15955 35.1928,202.15955 C35.1928,202.15955 37.3918,178.29755 38.4868,172.83955 C39.5813,167.38155 40.6883,162.39505 40.6883,162.39505 L42.2258,117.67405 L32.6343,115.37255 Z" id="Fill-47" fill="#175E7E" mask="url(#mask-2)"></path>
                                <path d="M43.9612,127.21485 C43.9382,126.00035 43.2537,121.46835 43.2467,120.88985 C43.1902,116.37885 42.5002,109.92435 42.5807,106.42485 C42.6607,102.92485 43.5447,84.41635 43.1422,80.68335 C43.0677,79.98885 42.9457,79.30535 42.7967,78.65235 C42.0202,78.65185 41.3082,78.71985 40.6427,78.83685 C37.8347,86.05185 36.5322,94.01185 36.3937,102.08285 C36.2462,93.87635 37.2972,85.77535 40.1427,78.46435 C29.0977,80.39535 33.1972,97.61885 33.1972,105.23335 C33.5567,111.85035 33.5172,121.09335 35.3362,128.45485 C36.5127,128.32385 38.5392,128.14335 39.6607,128.04985 C39.6797,128.12185 42.8377,127.63985 43.9612,127.21485" id="Fill-48" fill="#1D1D1B" mask="url(#mask-2)"></path>
                                <path d="M42.79665,78.06885 C42.14415,75.21285 40.97415,72.94535 40.97415,72.94535 L31.81815,68.12435 L22.50215,64.08035 L15.75515,62.83585 C12.69615,63.93335 11.50115,67.70785 11.10865,72.01685 C10.70165,76.47935 11.15515,81.51385 11.29165,84.74085 C11.55915,91.08335 11.41815,102.28485 11.41815,102.28485 C11.41815,102.28485 10.16615,110.39985 10.03265,114.54185 C10.00115,115.50985 10.49615,120.24685 10.48865,122.85085 C11.17315,124.07585 15.89265,126.56535 20.74815,127.68385 C25.25815,128.72385 30.92065,128.73835 35.33615,128.24485 C34.29865,121.62735 33.55715,111.63985 33.19715,105.02235 C33.19715,96.94885 29.14265,78.06435 42.79665,78.06885" id="Fill-49" fill="#3C3C3B" mask="url(#mask-2)"></path>
                                <path d="M38.59985,45.1555 C38.59985,45.1555 38.89285,47.7795 38.81235,49.568 C38.73235,51.3565 38.24935,52.493 38.24935,52.493 C38.24935,52.493 39.24285,53.982 39.16235,56.937 C39.12235,58.415 38.70335,59.2895 38.41085,61.1035 C38.11885,62.917 38.42835,64.3005 37.48185,64.8445 C36.10635,65.6355 34.42985,65.1775 34.42985,65.1775 L34.62935,69.9905 C34.62935,69.9905 28.61235,70.956 25.95485,69.9905 C23.81435,69.213 22.86585,66.926 22.86585,66.926 L23.08035,63.6915 C23.08035,63.6915 19.36935,49.0715 25.47335,45.105 C31.57735,41.139 37.01735,42.4805 38.59985,45.1555" id="Fill-50" fill="#FCD4A4" mask="url(#mask-2)"></path>
                                <path d="M31.98195,63.26195 C31.98195,63.26195 33.13995,64.29345 33.60345,64.60795 C34.06645,64.92195 34.42995,65.17795 34.42995,65.17795 L34.62895,69.99095 L32.62045,70.24145 L31.98195,63.26195 Z" id="Fill-51" fill="#FDD5A5" mask="url(#mask-2)"></path>
                                <path d="M24.58035,53.9248 C21.93935,51.3678 19.70885,53.5473 19.14085,56.5638 C20.68285,60.2248 23.25385,63.6913 23.25385,63.6913 C23.25385,63.6913 23.29835,62.8358 25.51735,63.0548 C25.81185,63.0838 26.30035,63.2313 26.84985,63.4268 C28.29485,63.9423 30.17685,64.8028 30.17685,64.8028 C30.17685,64.8028 30.35585,63.8828 30.64385,62.8453 C29.56235,59.2018 27.71085,55.9458 24.58035,53.9248" id="Fill-52" fill="#331F15" mask="url(#mask-2)"></path>
                                <path d="M35.6033,40.7085 C34.2853,40.5365 31.0253,40.2675 31.0253,40.2675 C31.0253,40.2675 28.1093,39.35 24.0888,40.46 C22.5628,40.881 20.3318,42.308 19.0723,44.1215 C19.0468,44.1585 19.0148,44.1935 18.9898,44.231 C17.7458,46.0975 17.1838,50.315 18.4273,54.5925 C18.6168,55.2435 18.8638,55.9065 19.1408,56.5635 C19.7088,53.5475 22.4868,52.494 25.1273,55.051 C28.2578,57.072 29.5623,59.2015 30.6443,62.845 C30.8838,61.983 31.1988,61.0405 31.5523,60.474 C32.3273,59.234 32.7508,58.143 32.7508,58.143 C32.7508,58.143 31.4673,58.1615 31.0253,57.102 C30.7003,56.323 30.7568,54.3755 31.4193,53.7305 C32.7378,52.4475 33.4788,52.742 33.8953,53.4955 C34.4483,54.4955 34.4293,56.3035 34.4293,56.3035 L35.1913,55.3125 C35.1913,55.3125 35.1788,54.8965 35.1693,54.2715 C35.1553,53.3615 35.7273,52.175 35.7778,51.0185 C35.8233,49.9905 35.6718,48.4255 35.8433,48.1565 C36.0063,47.902 39.0483,47.535 39.0493008,45.796 C39.0503,43.948 38.0963,41.0335 35.6033,40.7085" id="Fill-53" fill="#412719" mask="url(#mask-2)"></path>
                                <path d="M60.01565,128.63135 C59.88865,128.42435 59.47065,127.97985 59.13965,127.57935 C58.88715,127.27385 58.57965,126.90785 58.23165,126.52585 C57.33815,125.54585 56.17315,124.46085 54.96415,124.02385 C53.53715,123.50885 51.79665,122.77735 51.30265,122.56785 L50.29515,119.94885 C49.06915,121.80535 47.77065,123.62035 46.39365,125.37285 C47.13915,126.56835 47.73565,127.51435 48.09015,128.07285 C48.69215,129.65685 49.48365,131.65185 49.77165,131.97285 C50.25865,132.51535 51.80765,134.09185 51.80765,134.09185 C51.80765,134.09185 53.39515,135.08985 53.93415,134.68685 C54.38865,134.34785 55.22165,134.16935 55.64815,133.91785 C56.38815,133.48135 56.27915,133.05885 56.27915,133.05885 C56.27915,133.05885 56.79865,133.38935 57.49415,132.76835 C58.18965,132.14835 57.74065,131.63785 57.74065,131.63785 C57.74065,131.63785 58.19115,131.74935 58.91415,131.01885 C59.41165,130.51685 59.30415,129.70535 59.04565,129.29035 C59.28165,129.42785 59.48365,129.51985 59.62065,129.53635 C60.07215,129.59035 60.33215,129.14785 60.01565,128.63135" id="Fill-54" fill="#62B5CD" mask="url(#mask-2)"></path>
                                <path d="M15.70535,48.61305 C16.17285,45.41905 17.78485,41.31105 20.26735,39.09305 C22.75035,36.87505 26.57935,35.25005 31.44285,35.69655 C36.30635,36.14305 41.64685,41.38955 41.64685,41.38955 C41.64685,41.38955 44.85685,43.86255 45.43435,48.10655 C45.72985,50.28055 45.92935,52.22905 44.97135,55.43905 C44.97135,55.43905 44.34285,58.29105 43.30085,60.02755 C40.59485,64.53655 39.38235,66.49855 38.31485,67.21005 C37.65235,67.57055 30.14035,67.67655 24.43235,65.53305 C18.69585,63.37855 18.09835,62.30255 17.63585,61.53605 C17.42035,60.64805 16.09785,56.97455 15.73235,55.28605 C15.36685,53.59755 15.23785,51.80755 15.70535,48.61305" id="Fill-55" fill="#1D1D1B" mask="url(#mask-2)"></path>
                                <path d="M45.5232,47.69285 C45.5232,47.69285 44.7377,43.10935 41.9982,40.36835 C39.8682,38.23735 34.5442,34.32535 26.7597,35.42135 C19.0212,36.51085 16.3742,42.74985 15.6672,47.03585 C14.6532,53.18485 15.8267,54.85785 15.8267,54.85785 C15.8267,54.85785 16.1372,55.79585 17.2287,56.28785 C18.3202,56.77985 18.9992,56.66285 21.2582,56.23035 C23.5167,55.79735 24.8067,55.50535 25.9892,54.93185 C27.1717,54.35885 28.6332,53.94285 29.3982,53.63035 C30.1632,53.31835 32.2712,52.65485 33.3762,52.43285 C34.4817,52.21035 35.7782,52.27885 36.3697,52.38835 C37.8767,52.66635 40.6112,54.68885 40.6112,54.68885 C40.6112,54.68885 41.0997,53.15185 41.3197,52.31085 C41.5397,51.47035 41.9557,50.21335 42.2902,49.37935 C42.6247,48.54485 43.0282,47.50085 43.0282,47.50085 L45.5232,47.69285 Z" id="Fill-56" fill="#3C3C3B" mask="url(#mask-2)"></path>
                                <path d="M40.89015,44.31935 C40.06315,44.19185 37.84615,43.65585 36.08015,45.56835 C34.99115,46.79685 33.26065,50.78935 35.66515,53.27685 C36.77515,54.42485 41.19015,57.78485 44.33865,59.69085 C45.07165,60.13385 47.64165,53.03685 46.42565,46.71735 C46.34865,46.31785 42.27765,44.77135 40.89015,44.31935" id="Fill-57" fill="#6F6F6E" mask="url(#mask-2)"></path>
                                <path d="M37.21485,48.71605 C37.01735,50.32305 37.73335,51.73355 38.81435,51.86655 C39.89485,51.99955 40.93135,50.80455 41.12885,49.19755 C41.32685,47.59055 40.61085,46.18005 39.52985,46.04705 C38.44885,45.91405 37.41285,47.10905 37.21485,48.71605" id="Fill-58" fill="#1D1D1B" mask="url(#mask-2)"></path>
                                <path d="M40.6426,57.22535 C40.6426,57.22535 43.0231,58.89435 44.3386,59.69085 C45.0716,60.13385 47.6421,53.03685 46.4256,46.71735 C46.3731,46.44435 43.9611,45.48685 43.9611,45.48685 L40.6426,57.22535 Z" id="Fill-59" fill="#9C9B9B" mask="url(#mask-2)"></path>
                                <polygon id="Fill-60" fill="#FCD9C8" mask="url(#mask-2)" points="129.3672 143.2842 129.2292 137.6322 181.9057 137.6322 181.7677 143.2842"></polygon>
                                <polygon id="Fill-61" fill="#EDC8B1" mask="url(#mask-2)" points="181.90575 137.6323 129.22875 137.6323 133.99175 129.9598 177.14375 129.9598"></polygon>
                                <polygon id="Fill-62" fill="#A47679" mask="url(#mask-2)" points="129.4075 143.357 181.804 143.357 181.804 143.247 129.4075 143.247"></polygon>
                                <polygon id="Fill-63" fill="#FCD9C8" mask="url(#mask-2)" points="129.49705 136.26955 129.35905 130.61755 182.03555 130.61755 181.89755 136.26955"></polygon>
                                <polygon id="Fill-64" fill="#EDC8B1" mask="url(#mask-2)" points="182.03565 130.6177 129.35865 130.6177 134.12165 122.9457 177.27365 122.9457"></polygon>
                                <polygon id="Fill-65" fill="#A47679" mask="url(#mask-2)" points="129.5375 136.343 181.934 136.343 181.934 136.233 129.5375 136.233"></polygon>
                                <polygon id="Fill-66" fill="#1C140C" mask="url(#mask-2)" points="130.4125 135.6145 180.853 135.6145 180.853 131.1595 130.4125 131.1595"></polygon>
                                <polyline id="Stroke-68" stroke="#9C9B9B" stroke-linecap="round" stroke-linejoin="round" mask="url(#mask-2)" points="210.46145 148.46775 210.46145 157.40525 100.16095 157.40525 100.16095 148.46775"></polyline>
                                <path d="M92.8213,135.8135 L85.7318,135.8135 C85.2673,135.8135 84.8908,135.4725 84.8908,135.0525 C84.8908,134.6325 85.2673,134.2915 85.7318,134.2915 L86.5183,134.2915 C86.6813,134.2915 86.8133,134.1725 86.8133,134.025 C86.8133,133.9225 86.7463,133.83 86.6443,133.785 C84.5568,132.8695 83.7293,131.4175 83.5113,130.958 C83.4693,130.869 83.4473,130.7755 83.4453,130.6785 L82.9878,112.465 C82.9768,112.038 83.3563,111.6865 83.8283,111.6865 L92.8213,111.6865 L93.7828,111.6865 L102.7758,111.6865 C103.2478,111.6865 103.6273,112.038 103.6163,112.465 L103.1588,130.6785 C103.1563,130.7755 103.1348,130.869 103.0923,130.958 C102.8743,131.4175 102.0473,132.8695 99.9598,133.785 C99.8578,133.83 99.7908,133.9225 99.7908,134.025 C99.7908,134.1725 99.9228,134.2915 100.0858,134.2915 L100.8723,134.2915 C101.3368,134.2915 101.7133,134.6325 101.7133,135.0525 C101.7133,135.4725 101.3368,135.8135 100.8723,135.8135 L93.7828,135.8135 L92.8213,135.8135" id="Stroke-69" stroke="#9C9B9B" stroke-linecap="round" stroke-linejoin="round" mask="url(#mask-2)"></path>
                                <path d="M88.1477,111.6865 L88.2552,131.031 C88.2552,131.031 88.7357,132.77 89.6972,134.2915 L100.0312,134.2915 C100.0312,134.2915 101.9537,134.074 101.7132,135.161 C101.4732,136.248 101.8107,135.5955 85.5402,135.8135 C85.5402,135.8135 84.7007,135.448 84.9162,134.87 C85.1307,134.2915 86.5727,134.2915 86.5727,134.2915 L86.5727,133.857 C86.5727,133.857 83.6892,132.3355 83.4487,130.5965 C83.2082,128.858 82.9682,112.339 82.9682,112.339 C82.9682,112.339 83.2222,111.7565 83.5757,111.7215 C83.9292,111.6865 88.1477,111.6865 88.1477,111.6865 Z" id="Stroke-70" stroke="#9C9B9B" stroke-linecap="round" stroke-linejoin="round" mask="url(#mask-2)"></path>
                                <path d="M92.38845,111.3462 L92.57445,107.4402 C92.57445,107.4402 88.85495,110.0442 82.90295,108.5562 C76.95145,107.0682 76.95145,104.8362 82.53095,103.7207 C88.11045,102.6047 91.83045,105.2087 91.83045,105.2087 L90.34245,98.5127 C90.34245,98.5127 85.50695,99.2567 82.53095,97.0247 C79.55495,94.7932 79.55495,93.3052 82.90295,93.3052 C86.25095,93.3052 88.48245,94.7932 88.48245,94.7932 L85.87895,91.0732 C85.87895,91.0732 82.15895,92.5612 78.81145,91.0732 C75.46345,89.5857 82.90295,88.4697 82.90295,88.4697 L81.78695,87.7257 C81.78695,87.7257 78.43945,88.8417 77.32345,87.7257 C76.20745,86.6097 81.41495,86.2377 81.41495,86.2377 C81.41495,86.2377 80.29895,83.2617 80.67095,82.5177 C81.04345,81.7737 82.90295,84.7497 83.27495,86.2377 C83.27495,86.2377 88.48245,88.8417 90.71445,93.6772 L92.57445,88.4697 C92.57445,88.4697 88.11045,84.3777 88.11045,81.4017 C88.11045,78.4262 93.69045,82.8897 94.06245,85.4937 C94.06245,85.4937 96.29445,82.8897 96.66645,82.8897 C97.03795,82.8897 94.80595,79.5422 95.17845,77.3102 C95.55045,75.0782 96.66645,75.0782 97.40995,77.3102 C98.15395,79.5422 98.15395,81.0302 98.15395,81.0302 C98.15395,81.0302 102.24595,78.4262 102.98995,77.6822 C102.98995,77.6822 103.73345,74.7062 105.59345,74.7062 C107.45345,74.7062 104.47795,78.0542 104.47795,78.0542 C108.07645,78.3627 108.90945,78.8042 108.94145,79.1697 C108.97795,79.5902 107.97795,80.1292 107.08145,80.2857 C105.70145,80.5272 105.35395,79.7252 104.10595,79.9142 C102.51845,80.1542 101.17695,81.7397 101.12995,81.7737 C101.12995,81.7737 105.59345,81.7737 106.70945,83.6337 C107.82545,85.4937 100.38595,85.1217 99.64195,83.6337 C99.64195,83.6337 97.78195,84.3777 96.66645,86.6097 C96.66645,86.6097 100.38595,86.6097 102.61795,87.3537 C104.84945,88.0972 105.96545,89.5857 102.24595,90.3292 C98.52595,91.0732 95.17845,88.8417 95.17845,88.8417 C95.17845,88.8417 92.57445,94.4212 92.57445,97.7687 C92.57445,97.7687 96.66645,94.7932 98.52595,94.4212 C100.38595,94.0492 101.50195,95.1652 100.38595,96.6532 C99.26995,98.1407 96.66645,99.6287 93.31845,100.3727 C93.31845,100.3727 94.06245,102.6047 94.43445,104.0927 C94.43445,104.0927 98.89795,100.7447 102.61795,101.1167 C106.33745,101.4887 104.47795,103.3487 103.36195,104.0927 C102.24595,104.8362 100.01395,106.6962 94.80595,106.6962 L94.80595,111.1602 L94.80595,111.9042 L92.20245,111.9042" id="Fill-71" fill="#70A42E" mask="url(#mask-2)"></path>
                                <polygon id="Fill-72" fill="#BEBEBE" mask="url(#mask-2)" points="64.7644 192.4531 58.6289 190.8986 60.1509 195.9786 77.4114 195.3426 73.3819 194.4106 139.9684 173.4926 145.0964 174.3801 143.7999 169.5681 125.6494 170.9046 130.7894 171.9556"></polygon>
                                <polygon id="Fill-73" fill="#1C140C" mask="url(#mask-2)" points="180.04685 129.89845 131.23285 129.89845 134.53085 123.88795 176.60085 123.88795"></polygon>
                                <polygon id="Fill-74" fill="#3C3C3B" mask="url(#mask-2)" points="136.479 127.8725 162.644 127.8725 162.644 120.097 136.479 120.097"></polygon>
                                <polygon id="Fill-75" fill="#1D1D1B" mask="url(#mask-2)" points="161.76075 118.2759 137.99375 118.2759 136.47925 120.0974 162.64425 120.0974"></polygon>
                                <line x1="136.479" y1="127.87255" x2="162.644" y2="127.87255" id="Stroke-76" stroke="#010101" stroke-width="0.5" mask="url(#mask-2)"></line>
                                <path d="M213.4038,45.9751 C213.4038,47.2616 214.4468,48.3046 215.7328,48.3046 L218.9288,48.3046 C220.2153,48.3046 221.4423,47.2616 221.4423,45.9751 L222.1803,45.9676 L213.4038,45.9676 L213.4038,45.9751 Z" id="Stroke-77" stroke="#9C9B9B" stroke-linecap="round" stroke-linejoin="round" mask="url(#mask-2)"></path>
                                <path d="M222.91845,18.8806 L221.61595,18.8806 L221.61345,18.8806 L221.61345,18.8806 L221.61545,18.8806 L221.60695,18.8551 C221.58145,18.7601 221.55045,18.6671 221.51145,18.5781 L221.50745,18.5666 L221.50595,18.5666 C221.20795,17.8996 220.53995,17.4341 219.76245,17.4341 L219.15695,17.4341 L219.15695,17.1781 L219.15695,17.0146 C219.15695,16.4241 218.67795,15.9451 218.08695,15.9451 L216.68995,15.9451 C216.09945,15.9451 215.62045,16.4241 215.62045,17.0146 L215.62045,17.1781 L215.62045,17.4341 L215.01495,17.4341 C214.23545,17.4341 213.56545,17.9021 213.26895,18.5721 L213.26845,18.5721 L213.26845,18.5731 C213.22845,18.6626 213.19695,18.7566 213.17095,18.8531 L213.16145,18.8796 L213.16395,18.8796 L213.16395,18.8806 L211.50795,18.8806 C209.25645,18.8806 207.43195,20.7051 207.43195,22.9561 L207.43195,22.9971 L226.43945,22.9971 L226.99395,22.9971 L226.99395,22.9561 C226.99395,20.7051 225.16895,18.8806 222.91845,18.8806 Z" id="Stroke-78" stroke="#9C9B9B" stroke-linecap="round" stroke-linejoin="round" mask="url(#mask-2)"></path>
                                <polyline id="Stroke-79" stroke="#9C9B9B" stroke-linecap="round" stroke-linejoin="round" mask="url(#mask-2)" points="226.9468 22.6626 224.6628 46.0641 220.9323 46.0641"></polyline>
                                <line x1="221.39305" y1="22.8977" x2="220.47105" y2="45.3457" id="Stroke-80" stroke="#9C9B9B" stroke-linecap="round" stroke-linejoin="round" mask="url(#mask-2)"></line>
                                <line x1="213.02785" y1="22.97975" x2="213.94985" y2="45.42725" id="Stroke-81" stroke="#9C9B9B" stroke-linecap="round" stroke-linejoin="round" mask="url(#mask-2)"></line>
                                <polyline id="Stroke-82" stroke="#9C9B9B" stroke-linecap="round" stroke-linejoin="round" mask="url(#mask-2)" points="207.5244 22.58495 209.8079 45.98645 213.5389 45.98645"></polyline>
                            </g>
                            <g id="Group-86" transform="translate(149.500000, 131.625000)">
                                <mask id="mask-4" fill="white">
                                    <use xlink:href="#path-3"></use>
                                </mask>
                                <g id="Clip-85"></g>
                                <path d="M0.2407,2.38035 C0.2437,2.43085 0.2457,2.46785 0.2532,2.50485 C0.2572,2.52235 0.2452,2.56185 0.1967,2.55335 C0.1697,2.54885 0.1427,2.53785 0.1222,2.52035 C0.1002,2.50235 0.0887,2.47635 0.0812,2.44985 C0.0642,2.38935 0.0272,2.20635 0.1402,2.20885 C0.1657,2.20935 0.1877,2.22085 0.2032,2.23985 C0.2332,2.27835 0.2382,2.33335 0.2407,2.38035 M3.3277,1.61885 C3.3277,1.61885 3.2187,0.71535 2.4427,0.47085 C2.0097,0.33435 1.7937,0.37535 1.5292,0.42185 C1.2177,0.47585 0.8442,0.60835 0.5757,0.83785 C0.3927,0.99435 0.2077,1.23085 0.1367,1.52835 C0.0982,1.68985 0.0942,1.84535 0.1237,2.01435 C0.1342,2.07585 0.2207,2.13235 0.2217,2.03285 C0.2312,0.92085 1.1462,0.71435 1.1787,0.70785 C1.1902,0.70535 1.2017,0.70335 1.2117,0.70085 C1.2267,0.69735 1.2432,0.69435 1.2562,0.69685 C1.2647,0.69835 1.2722,0.71335 1.2592,0.71935 C1.1857,0.75435 0.9007,0.85035 0.7462,0.98635 C0.5892,1.12435 0.3832,1.34635 0.3187,1.72935 C0.3077,1.79535 0.2967,2.13385 0.3287,2.37185 C0.3467,2.50935 0.4402,2.69485 0.5027,2.77485 C0.6707,2.98935 0.9607,3.17185 1.1187,3.22785 C1.2192,3.26385 1.3412,3.27435 1.4032,3.28885 C1.4252,3.29385 1.4222,3.32085 1.4002,3.32435 C1.3002,3.34035 1.0582,3.28485 0.8572,3.18635 C0.7072,3.11235 0.6037,3.01085 0.5022,2.90135 C0.3907,2.78085 0.3312,2.65535 0.2902,2.66335 C0.2217,2.67785 0.2797,2.82285 0.3097,2.87885 C0.4127,3.07085 0.6187,3.23785 0.7212,3.29335 C1.0422,3.46835 1.3662,3.47285 1.5137,3.45985 C2.1442,3.40685 2.5317,3.10385 2.7037,2.86735 C2.8042,2.72785 3.0292,2.43485 3.0237,2.00735 C3.0232,1.93885 3.0292,1.46535 2.8742,1.21835 C2.8387,1.16135 2.7322,0.93135 2.3322,0.73435 C2.3012,0.71935 2.1647,0.65035 2.0527,0.64685 C2.0052,0.64585 1.9102,0.64185 1.9187,0.58585 C1.9252,0.54635 2.1587,0.59885 2.1832,0.60535 C2.3517,0.65185 2.5667,0.78085 2.7157,0.89435 C3.1792,1.24785 3.1327,1.99735 3.1327,1.99735 C3.1127,2.79485 2.6467,3.13235 2.3122,3.33135 C2.3052,3.33535 2.2812,3.36585 2.2892,3.37785 C2.2967,3.39035 2.3132,3.38885 2.3292,3.38735 C2.4582,3.37385 2.5832,3.27835 2.6897,3.19485 C3.2427,2.76135 3.2712,2.42285 3.3017,2.29535 C3.3467,2.11035 3.3492,1.73585 3.3277,1.61885" id="Fill-84" fill="#D60926" mask="url(#mask-4)"></path>
                            </g>
                            <path d="M151.9839,133.458 C151.9679,133.452 151.9529,133.4465 151.9419,133.442 C151.8994,133.425 151.7959,133.3975 151.7124,133.3755 C151.6664,133.3635 151.6189,133.3505 151.6094,133.3465 C151.6004,133.3335 151.5799,133.246 151.5704,133.2035 C151.5654,133.182 151.5614,133.1645 151.5594,133.157 C151.5519,133.131 151.5424,133.1155 151.5164,133.1185 L151.5144,133.1185 C151.5054,133.12 151.3814,133.1515 151.1794,133.203 C151.0429,133.238 150.9024,133.2735 150.8934,133.275 C150.8819,133.2765 150.8754,133.2825 150.7869,133.4215 C150.7604,133.463 150.7274,133.5145 150.7224,133.52 C150.7194,133.522 150.7004,133.531 150.6809,133.54 C150.6239,133.566 150.5194,133.6145 150.4299,133.666 C150.3304,133.723 150.1399,133.844 150.1259,133.871 C150.1204,133.881 150.1199,133.8915 150.1254,133.8995 C150.1319,133.91 150.1469,133.9155 150.1654,133.9135 C150.1694,133.913 150.1739,133.9125 150.1779,133.911 C150.1969,133.906 150.7999,133.786 151.1459,133.729 C151.2324,133.715 151.3414,133.7005 151.4704,133.687 C151.7869,133.654 152.1064,133.6355 152.1249,133.6375 C152.1434,133.6395 152.1624,133.6325 152.1754,133.617 C152.1859,133.6055 152.1919,133.5905 152.1914,133.5745 C152.1904,133.5435 152.1234,133.512 151.9839,133.458" id="Fill-87" fill="#FFFFFF"></path>
                            <path d="M161.3413,134.0835 L161.3773,134.0835 L161.4108,134.1785 L161.4118,134.1785 L161.4448,134.0835 L161.4808,134.0835 L161.4808,134.2075 L161.4573,134.2075 L161.4573,134.104 L161.4568,134.104 L161.4203,134.2075 L161.4018,134.2075 L161.3658,134.104 L161.3648,134.104 L161.3648,134.2075 L161.3413,134.2075 L161.3413,134.0835 Z M161.2253,134.0835 L161.3233,134.0835 L161.3233,134.1035 L161.2863,134.1035 L161.2863,134.2075 L161.2623,134.2075 L161.2623,134.1035 L161.2253,134.1035 L161.2253,134.0835 Z" id="Fill-89" fill="#FFFFFF"></path>
                            <path d="M153.87745,133.70265 C153.93045,133.64365 154.02495,133.65465 154.10745,133.63215 C154.25145,133.59215 154.47645,133.48765 154.47045,133.30415 C154.46495,133.14415 154.30995,133.04965 154.12895,133.02265 C154.00145,133.45915 153.78645,133.84815 153.58195,134.22765 C153.51995,134.34265 153.45945,134.51215 153.29895,134.52565 C153.21995,134.45715 153.24595,134.35815 153.25895,134.28715 C153.29495,134.08165 153.39095,133.85865 153.47495,133.67915 C153.59395,133.42665 153.75745,133.19115 153.92295,133.01015 C153.84795,133.01265 153.80195,133.02365 153.74645,132.98815 C153.69845,132.77665 153.92045,132.73215 154.07395,132.72215 C154.42745,132.70015 154.78345,132.90115 154.77495,133.26515 C154.76745,133.55965 154.45045,133.75315 154.15045,133.77665 C154.06595,133.78415 153.93595,133.79465 153.87745,133.70265 M159.06745,133.44165 C159.12095,133.33665 159.15745,133.24165 159.21495,133.11165 C159.24045,133.05465 159.38295,132.79365 159.24745,132.76065 C159.24495,132.75965 159.23945,132.75965 159.23695,132.76065 C159.00695,132.82515 158.84195,133.26615 158.69895,133.44915 C158.52295,133.44465 158.30895,133.43065 158.31845,133.56015 C158.32545,133.66515 158.47945,133.68615 158.56895,133.73715 C158.53545,133.84015 158.33945,134.25165 158.50695,134.35765 C158.68245,134.46815 158.77445,134.21015 158.81445,134.10115 C158.86445,133.96415 158.90145,133.84315 158.95895,133.74015 C159.09745,133.73065 159.25045,133.68315 159.36445,133.68115 C159.33395,133.80165 159.26645,133.96965 159.33945,134.12565 C159.46845,134.20815 159.56395,134.11765 159.60895,134.03465 C159.67995,133.90215 159.69095,133.66665 159.74395,133.56015 C159.82645,133.51015 159.95645,133.50465 159.97695,133.39665 C159.92945,133.35015 159.85495,133.39815 159.79195,133.39515 C159.80895,133.30865 159.85245,133.21665 159.88295,133.12715 C159.91245,133.03865 159.97095,132.93015 159.89995,132.83815 C159.75645,132.86165 159.69495,132.99265 159.63395,133.09415 C159.56645,133.20615 159.51295,133.32665 159.44645,133.43415 C159.31895,133.43515 159.20395,133.44865 159.06745,133.44165 M155.49495,132.79515 C155.33895,132.74365 155.08145,132.86615 154.99795,132.98715 C154.94495,133.06515 154.92645,133.21765 155.02995,133.24615 C155.15945,133.28165 155.25795,133.13265 155.31295,133.07265 C155.39745,132.98065 155.47145,132.91715 155.49495,132.79515 M161.49445,133.01515 C161.36745,132.98215 161.31495,133.07915 161.24095,133.16815 C161.18045,133.23965 161.14395,133.31215 161.10945,133.32215 C161.02495,133.34715 160.89195,133.26815 160.81995,133.28915 C160.79545,133.29615 160.75545,133.32915 160.75445,133.37115 C160.75195,133.48215 160.88645,133.49865 160.99395,133.53865 C160.94645,133.64215 160.88395,133.76915 160.84995,133.90915 C160.81945,134.03865 160.78445,134.22865 160.85695,134.36415 C160.94545,134.35015 160.96595,134.24515 160.99545,134.17915 C161.09745,133.95165 161.19345,133.71515 161.32095,133.52015 C161.52095,133.50615 161.72795,133.45015 161.88645,133.41065 C161.94295,133.39665 162.02395,133.40215 162.04445,133.33915 C162.00345,133.29065 161.92295,133.30765 161.85745,133.30715 C161.70095,133.30515 161.53295,133.31615 161.42695,133.31415 C161.46445,133.23515 161.57145,133.13965 161.49445,133.01515 M157.28795,133.75915 C157.32595,133.60365 157.46595,133.54415 157.62595,133.50315 C157.66945,133.50465 157.60745,133.54915 157.61145,133.57515 C157.60095,133.60415 157.58595,133.62765 157.58845,133.66815 C157.48945,133.69915 157.41945,133.75815 157.28795,133.75915 M156.47845,133.89815 C156.57245,133.81365 156.64845,133.73165 156.75445,133.63065 C156.82545,133.56365 157.01845,133.44665 156.96345,133.30165 C156.93295,133.22315 156.79595,133.20715 156.69895,133.20665 C156.55945,133.20665 156.38245,133.25015 156.24045,133.24465 C156.18995,133.24315 156.14445,133.20215 156.10595,133.23365 C155.97645,133.50465 156.38595,133.48665 156.58695,133.46415 C156.44095,133.62165 156.18445,133.71765 156.05745,133.89465 C156.02495,133.94115 155.98295,134.01415 156.01295,134.09065 C156.06695,134.13365 156.12845,134.10415 156.18795,134.10215 C156.45695,134.09365 156.76595,134.18215 156.96645,134.08765 C157.00745,134.06765 157.03295,134.03265 157.07245,134.00515 C157.31795,134.08415 157.49195,133.94415 157.63545,133.86465 C157.72195,133.98165 158.07545,133.98915 158.10495,133.83765 C158.04895,133.74265 157.89545,133.79615 157.86695,133.69115 C157.83795,133.58215 158.02395,133.42565 157.90795,133.30915 C157.86245,133.27765 157.81245,133.32565 157.78395,133.30765 C157.43245,133.26365 157.06595,133.45515 156.97645,133.71515 C156.95295,133.78415 156.97045,133.87215 156.98445,133.93265 C156.83495,133.99415 156.64145,133.92015 156.47845,133.89815 M155.04895,133.34965 C155.00045,133.32765 154.98045,133.34215 154.95795,133.36965 C154.81395,133.54465 154.48595,133.81615 154.51495,134.10015 C154.52595,134.20215 154.58445,134.33115 154.71545,134.28765 C154.75445,134.25415 154.73895,134.20815 154.75695,134.16415 C154.86145,133.90765 155.16495,133.72815 155.04895,133.34965 M156.01945,133.42915 C155.90095,133.38665 155.70095,133.41415 155.52495,133.40465 C155.36695,133.39665 155.16145,133.33865 155.17195,133.47465 C155.18345,133.63515 155.50595,133.61815 155.67495,133.60215 C155.55545,133.71215 155.41545,133.81865 155.28145,133.93015 C155.16395,134.02765 154.95045,134.14315 155.00895,134.36215 C155.14045,134.43715 155.29645,134.36165 155.47045,134.35565 C155.79695,134.34315 156.07595,134.44115 156.38795,134.41415 C156.50995,134.40315 156.70045,134.36265 156.69095,134.23015 C156.62145,134.18965 156.56345,134.23215 156.49645,134.23865 C156.17695,134.27315 155.87545,134.09415 155.51245,134.11765 C155.60545,134.02065 155.72895,133.92265 155.83645,133.82065 C155.93395,133.72715 156.07945,133.60915 156.01945,133.42915 M160.10945,134.00715 C160.15095,133.88565 160.20245,133.60515 160.03195,133.56215 C159.97295,133.54765 159.89295,133.56465 159.84995,133.60215 C159.84995,133.66615 159.92095,133.65265 159.92145,133.71615 C159.87745,133.84615 159.69345,134.08815 159.85095,134.23315 C159.99195,134.36215 160.22445,134.20665 160.29595,134.15315 C160.34995,134.11315 160.39695,134.05815 160.44145,134.05115 C160.45795,134.21715 160.52195,134.33165 160.67145,134.35265 C160.71595,134.30415 160.67795,134.24915 160.67845,134.18715 C160.67945,134.08815 160.71295,133.97465 160.73495,133.87765 C160.75795,133.77565 160.81645,133.66265 160.73995,133.56715 C160.65095,133.54765 160.61345,133.62265 160.57395,133.66965 C160.44895,133.81915 160.31295,133.93515 160.10945,134.00715" id="Fill-91" fill="#FFFFFF"></path>
                            <g id="Group-95" transform="translate(142.000000, 122.125000)">
                                <mask id="mask-6" fill="white">
                                    <use xlink:href="#path-5"></use>
                                </mask>
                                <g id="Clip-94"></g>
                                <path d="M0.22215,2.5 C0.22565,2.5595 0.22815,2.6035 0.23715,2.647 C0.24165,2.6685 0.22765,2.7155 0.17015,2.7045 C0.13815,2.699 0.10665,2.6865 0.08215,2.666 C0.05615,2.6445 0.04265,2.614 0.03365,2.582 C0.01365,2.5105 -0.03035,2.2945 0.10365,2.2975 C0.13315,2.2985 0.15915,2.311 0.17765,2.334 C0.21315,2.3795 0.21915,2.4445 0.22215,2.5 M3.87265,1.5995 C3.87265,1.5995 3.74415,0.531 2.82665,0.2415 C2.31465,0.0805 2.05965,0.129 1.74615,0.184 C1.37815,0.248 0.93615,0.405 0.61865,0.676 C0.40165,0.861 0.18315,1.1405 0.09915,1.4925 C0.05365,1.6835 0.04865,1.867 0.08365,2.067 C0.09615,2.1395 0.19865,2.207 0.19965,2.089 C0.21165,0.7745 1.29315,0.53 1.33115,0.5225 C1.34515,0.5195 1.35865,0.517 1.37115,0.5135 C1.38815,0.5095 1.40765,0.5065 1.42315,0.509 C1.43315,0.5105 1.44115,0.5285 1.42665,0.5355 C1.33965,0.577 1.00315,0.691 0.81965,0.8515 C0.63415,1.015 0.39065,1.2775 0.31465,1.73 C0.30115,1.808 0.28915,2.2085 0.32615,2.49 C0.34765,2.653 0.45865,2.872 0.53215,2.9665 C0.73115,3.22 1.07365,3.436 1.26065,3.5025 C1.37915,3.5445 1.52415,3.557 1.59715,3.574 C1.62315,3.5805 1.61965,3.6125 1.59365,3.616 C1.47515,3.6355 1.18915,3.57 0.95165,3.453 C0.77415,3.3655 0.65115,3.2455 0.53165,3.116 C0.39965,2.9735 0.32965,2.825 0.28015,2.835 C0.19965,2.8515 0.26815,3.0235 0.30365,3.09 C0.42515,3.317 0.66965,3.5135 0.79065,3.58 C1.17015,3.7865 1.55315,3.7915 1.72765,3.777 C2.47315,3.714 2.93165,3.356 3.13465,3.0755 C3.25315,2.911 3.52015,2.565 3.51365,2.059 C3.51265,1.978 3.52015,1.418 3.33665,1.1255 C3.29515,1.059 3.16915,0.786 2.69565,0.5535 C2.65915,0.5355 2.49715,0.454 2.36465,0.45 C2.30915,0.4485 2.19665,0.4445 2.20715,0.378 C2.21415,0.3315 2.49065,0.393 2.51965,0.401 C2.71815,0.4555 2.97315,0.6085 3.14915,0.743 C3.69715,1.161 3.64265,2.0475 3.64265,2.0475 C3.61915,2.99 3.06765,3.389 2.67115,3.625 C2.66415,3.6295 2.63565,3.6655 2.64465,3.6795 C2.65415,3.694 2.67265,3.6925 2.69165,3.6905 C2.84415,3.6755 2.99215,3.562 3.11865,3.463 C3.77265,2.9505 3.80565,2.551 3.84215,2.4 C3.89565,2.1805 3.89815,1.738 3.87265,1.5995" id="Fill-93" fill="#D60926" mask="url(#mask-6)"></path>
                            </g>
                            <path d="M144.875,123.97805 C144.856,123.97055 144.839,123.96405 144.825,123.95855 C144.7755,123.93805 144.653,123.90555 144.554,123.88005 C144.4995,123.86555 144.443,123.85055 144.432,123.84605 C144.4215,123.83005 144.398,123.72705 144.386,123.67705 C144.3805,123.65155 144.3755,123.63105 144.373,123.62205 C144.364,123.59105 144.3525,123.57255 144.3225,123.57605 L144.32,123.57655 C144.309,123.57805 144.1625,123.61505 143.9235,123.67605 C143.762,123.71755 143.5955,123.75955 143.5855,123.76105 C143.572,123.76305 143.564,123.77055 143.4595,123.93455 C143.428,123.98355 143.389,124.04505 143.383,124.05105 C143.3795,124.05355 143.357,124.06405 143.3335,124.07455 C143.267,124.10555 143.143,124.16305 143.037,124.22355 C142.92,124.29105 142.6945,124.43405 142.6775,124.46655 C142.6715,124.47805 142.6715,124.49005 142.677,124.50005 C142.685,124.51255 142.7025,124.51855 142.7245,124.51655 C142.7295,124.51605 142.7345,124.51505 142.7395,124.51355 C142.7615,124.50805 143.475,124.36555 143.8845,124.29855 C143.9865,124.28105 144.115,124.26455 144.2675,124.24855 C144.6425,124.20905 145.02,124.18805 145.0415,124.19005 C145.064,124.19305 145.0865,124.18355 145.1015,124.16605 C145.1145,124.15205 145.1205,124.13405 145.12,124.11555 C145.119,124.07905 145.04,124.04205 144.875,123.97805" id="Fill-96" fill="#FFFFFF"></path>
                            <path d="M155.9409,124.7173 L155.9834,124.7173 L156.0234,124.8303 L156.0239,124.8303 L156.0634,124.7173 L156.1064,124.7173 L156.1064,124.8643 L156.0784,124.8643 L156.0784,124.7418 L156.0774,124.7418 L156.0344,124.8643 L156.0129,124.8643 L155.9699,124.7418 L155.9689,124.7418 L155.9689,124.8643 L155.9409,124.8643 L155.9409,124.7173 Z M155.8039,124.7173 L155.9194,124.7173 L155.9194,124.7408 L155.8754,124.7408 L155.8754,124.8643 L155.8474,124.8643 L155.8474,124.7408 L155.8039,124.7408 L155.8039,124.7173 Z" id="Fill-98" fill="#FFFFFF"></path>
                            <g id="Group-102" transform="translate(146.000000, 122.625000)">
                                <mask id="mask-8" fill="white">
                                    <use xlink:href="#path-7"></use>
                                </mask>
                                <g id="Clip-101"></g>
                                <path d="M1.11425,1.6421 C1.17725,1.5721 1.28875,1.5861 1.38625,1.5586 C1.55675,1.5116 1.82275,1.3876 1.81525,1.1711 C1.80925,0.9816 1.62575,0.8696 1.41175,0.8376 C1.26075,1.3541 1.00725,1.8141 0.76525,2.2631 C0.69175,2.3991 0.61975,2.5991 0.43025,2.6146 C0.33625,2.5341 0.36825,2.4171 0.38225,2.3336 C0.42525,2.0901 0.53925,1.8261 0.63875,1.6141 C0.77875,1.3161 0.97275,1.0371 1.16775,0.8236 C1.08025,0.8261 1.02425,0.8386 0.95925,0.7976 C0.90225,0.5476 1.16525,0.4936 1.34625,0.4826 C1.76475,0.4566 2.18625,0.6941 2.17525,1.1246 C2.16675,1.4726 1.79125,1.7011 1.43725,1.7301 C1.33725,1.7381 1.18375,1.7506 1.11425,1.6421 M7.25175,1.3331 C7.31575,1.2091 7.35775,1.0966 7.42625,0.9436 C7.45625,0.8756 7.62475,0.5671 7.46475,0.5276 C7.46225,0.5276 7.45525,0.5271 7.45275,0.5276 C7.18025,0.6046 6.98525,1.1261 6.81575,1.3421 C6.60825,1.3376 6.35525,1.3206 6.36575,1.4731 C6.37475,1.5976 6.55675,1.6226 6.66225,1.6831 C6.62375,1.8046 6.39075,2.2911 6.58925,2.4161 C6.79675,2.5476 6.90575,2.2416 6.95275,2.1131 C7.01125,1.9516 7.05575,1.8081 7.12375,1.6866 C7.28775,1.6746 7.46875,1.6191 7.60325,1.6166 C7.56675,1.7591 7.48775,1.9581 7.57325,2.1421 C7.72575,2.2396 7.83925,2.1331 7.89225,2.0346 C7.97675,1.8781 7.98925,1.5991 8.05225,1.4736 C8.14975,1.4146 8.30375,1.4081 8.32775,1.2796 C8.27075,1.2251 8.18375,1.2816 8.10875,1.2781 C8.12925,1.1756 8.18075,1.0676 8.21625,0.9616 C8.25125,0.8571 8.32025,0.7286 8.23625,0.6191 C8.06625,0.6481 7.99425,0.8021 7.92175,0.9226 C7.84225,1.0546 7.77875,1.1971 7.70025,1.3241 C7.54925,1.3256 7.41425,1.3416 7.25175,1.3331 M3.02725,0.5686 C2.84275,0.5081 2.53825,0.6526 2.43975,0.7966 C2.37625,0.8881 2.35425,1.0691 2.47725,1.1021 C2.63025,1.1441 2.74675,0.9681 2.81225,0.8971 C2.91175,0.7881 2.99925,0.7131 3.02725,0.5686 M10.12225,0.8286 C9.97225,0.7896 9.90975,0.9046 9.82175,1.0096 C9.75075,1.0946 9.70775,1.1801 9.66675,1.1921 C9.56675,1.2216 9.40975,1.1281 9.32425,1.1526 C9.29525,1.1611 9.24825,1.2001 9.24725,1.2501 C9.24425,1.3811 9.40275,1.4011 9.53025,1.4476 C9.47375,1.5701 9.39975,1.7206 9.36025,1.8866 C9.32375,2.0396 9.28275,2.2636 9.36825,2.4246 C9.47275,2.4076 9.49725,2.2836 9.53225,2.2056 C9.65275,1.9366 9.76625,1.6571 9.91675,1.4261 C10.15375,1.4101 10.39825,1.3436 10.58525,1.2966 C10.65275,1.2796 10.74875,1.2866 10.77225,1.2126 C10.72425,1.1546 10.62875,1.1751 10.55125,1.1741 C10.36675,1.1721 10.16725,1.1851 10.04225,1.1826 C10.08625,1.0896 10.21325,0.9761 10.12225,0.8286 M5.14725,1.7091 C5.19225,1.5251 5.35775,1.4546 5.54725,1.4061 C5.59875,1.4081 5.52525,1.4611 5.53025,1.4916 C5.51825,1.5256 5.49975,1.5531 5.50275,1.6011 C5.38525,1.6381 5.30325,1.7081 5.14725,1.7091 M4.19025,1.8731 C4.30075,1.7731 4.39125,1.6761 4.51675,1.5576 C4.60125,1.4771 4.82925,1.3396 4.76375,1.1681 C4.72825,1.0751 4.56575,1.0556 4.45075,1.0556 C4.28625,1.0556 4.07675,1.1066 3.90875,1.1006 C3.84925,1.0986 3.79525,1.0501 3.74975,1.0876 C3.59675,1.4076 4.08075,1.3866 4.31825,1.3606 C4.14575,1.5466 3.84275,1.6596 3.69275,1.8691 C3.65375,1.9236 3.60375,2.0101 3.63925,2.1011 C3.70375,2.1521 3.77625,2.1166 3.84675,2.1146 C4.16525,2.1051 4.53025,2.2091 4.76725,2.0971 C4.81575,2.0741 4.84575,2.0321 4.89275,2.0001 C5.18325,2.0931 5.38925,1.9281 5.55875,1.8341 C5.66125,1.9716 6.07925,1.9811 6.11375,1.8011 C6.04775,1.6896 5.86625,1.7526 5.83275,1.6286 C5.79775,1.4996 6.01775,1.3151 5.88025,1.1761 C5.82675,1.1396 5.76825,1.1961 5.73475,1.1751 C5.31825,1.1231 4.88475,1.3496 4.77975,1.6571 C4.75125,1.7386 4.77125,1.8426 4.78875,1.9141 C4.61175,1.9866 4.38325,1.8991 4.19025,1.8731 M2.49975,1.2246 C2.44225,1.1986 2.41825,1.2161 2.39225,1.2486 C2.22175,1.4546 1.83325,1.7761 1.86875,2.1121 C1.88125,2.2326 1.95075,2.3851 2.10525,2.3341 C2.15125,2.2941 2.13275,2.2396 2.15425,2.1881 C2.27825,1.8841 2.63675,1.6721 2.49975,1.2246 M3.64725,1.3191 C3.50725,1.2686 3.27075,1.3006 3.06225,1.2901 C2.87575,1.2796 2.63275,1.2121 2.64525,1.3726 C2.65925,1.5626 3.04025,1.5426 3.23975,1.5236 C3.09925,1.6531 2.93325,1.7791 2.77425,1.9111 C2.63575,2.0266 2.38325,2.1631 2.45225,2.4226 C2.60775,2.5101 2.79225,2.4221 2.99775,2.4141 C3.38425,2.4001 3.71475,2.5151 4.08275,2.4836 C4.22725,2.4706 4.45275,2.4226 4.44125,2.2656 C4.35975,2.2176 4.29075,2.2681 4.21175,2.2766 C3.83375,2.3166 3.47775,2.1056 3.04725,2.1331 C3.15825,2.0181 3.30375,1.9026 3.43075,1.7816 C3.54625,1.6711 3.71875,1.5316 3.64725,1.3191 M8.48425,2.0026 C8.53375,1.8586 8.59475,1.5266 8.39225,1.4761 C8.32325,1.4591 8.22825,1.4786 8.17775,1.5231 C8.17775,1.5986 8.26125,1.5831 8.26175,1.6581 C8.20975,1.8121 7.99225,2.0981 8.17875,2.2691 C8.34575,2.4226 8.62025,2.2376 8.70475,2.1751 C8.76875,2.1276 8.82425,2.0626 8.87625,2.0541 C8.89625,2.2506 8.97175,2.3856 9.14875,2.4106 C9.20125,2.3536 9.15625,2.2886 9.15675,2.2151 C9.15775,2.0986 9.19775,1.9636 9.22375,1.8491 C9.25075,1.7281 9.31975,1.5946 9.22975,1.4826 C9.12475,1.4591 9.08025,1.5476 9.03375,1.6031 C8.88575,1.7801 8.72525,1.9171 8.48425,2.0026" id="Fill-100" fill="#FFFFFF" mask="url(#mask-8)"></path>
                            </g>
                            <g id="Group-133" transform="translate(34.500000, 72.625000)">
                                <polygon id="Fill-103" fill="#D9E1F1" points="136.05175 32.2534 136.05175 33.3414 134.51725 33.3414 134.51725 33.3399 132.98275 33.3399 132.98275 32.2519 134.51725 32.2519 134.51725 32.2534"></polygon>
                                <path d="M138.4624,52.313 C138.2984,55.294 137.2959,55.9552067 136.8424,55.9552067 C136.4634,55.9552067 136.0799,55.743 135.8639,55.6 C135.7519,55.526 135.6079,55.523 135.4924,55.591 C135.2429,55.737 134.8054,55.963 134.5029,55.9552067 C134.1144,55.946 133.7539,55.752 133.5419,55.6125 C133.4239,55.534 133.2714,55.533 133.1529,55.611 C132.9339,55.754 132.5609,55.9552067 132.1924,55.9552067 C131.7389,55.9552067 130.7359,55.2925 130.5719,52.3115 C130.4079,49.3305 131.2204,48.2575 131.2614,46.893 C131.2694,46.601 131.2419,43.137 131.2069,41.765 C131.1849,40.908 131.0144,40.365 130.9184,39.914 C130.8114,39.417 130.7704,38.5475 130.9419,37.779 C131.2299,36.48 132.9039,34.147 132.9524,33.9345 C133.0014,33.7215 132.9764,32.949 132.9764,32.949 L136.0579,32.9505 C136.0579,32.9505 136.0334,33.723 136.0819,33.936 C136.1309,34.1485 137.8044,36.4815 138.0929,37.7805 C138.2644,38.549 138.2229,39.4185 138.1164,39.9155 C138.0199,40.366 137.8494,40.9095 137.8274,41.7665 C137.7929,43.138 137.7644,46.602 137.7734,46.8945 C137.8144,48.259 138.6264,49.332 138.4624,52.313" id="Fill-105" fill="#CBD4E2"></path>
                                <polygon id="Fill-107" fill="#B6BECA" points="132.9824 32.2578 132.9824 32.9663 136.0519 32.9663 136.0519 32.2623"></polygon>
                                <path d="M132.4717,54.1084 C132.3052,54.2469 132.2472,54.2499 131.9772,54.2499 C131.9772,54.2499 131.5862,53.1584 131.5532,51.9889 C131.4722,49.0839 131.8827,47.8599 131.9142,46.5309 C131.9202,46.2459 131.8987,42.8719 131.8732,41.5359 C131.8567,40.7019 131.7282,40.1719 131.6552,39.7334 C131.5752,39.2489 131.5442,38.4019 131.6727,37.6534 C131.8907,36.3884 132.9437,34.4299 133.1427,34.4959 C133.3712,34.5724 132.3767,36.7659 132.2387,37.7644 C132.1697,38.2604 132.2832,39.7439 132.3312,40.0294 C132.3782,40.3149 132.5607,44.8424 132.5057,46.4654 C132.4612,47.8084 132.1822,50.9559 132.1822,51.8604 C132.1822,52.7774 132.4717,54.1084 132.4717,54.1084" id="Fill-109" fill="#EAEFF7"></path>
                                <path d="M131.26125,46.89305 C131.26975,46.60105 131.24175,43.13705 131.20725,41.76505 L137.82775,41.76655 C137.79275,43.13805 137.76475,46.60205 137.77325,46.89455 L131.26125,46.89305 Z" id="Fill-111" fill="#1E1819"></path>
                                <path d="M131.21775,46.89305 C131.21975,46.60105 131.21375,43.13705 131.20725,41.76505 L132.54075,41.76655 C132.53375,43.13805 132.52775,46.60205 132.52975,46.89455 L131.21775,46.89305 Z" id="Fill-113" fill="#3C3C3B"></path>
                                <path d="M136.5049,46.89305 C136.5069,46.60105 136.5009,43.13705 136.4944,41.76505 L137.8279,41.76655 C137.8209,43.13805 137.8149,46.60205 137.8169,46.89455 L136.5049,46.89305 Z" id="Fill-115" fill="#1C1D1A"></path>
                                <path d="M132.8037,32.9265 C132.7647,32.9265 132.7332,32.895 132.7332,32.856 L132.7332,32.5775 C132.7332,32.539 132.7652,32.507 132.8037,32.5075 L136.2307,32.5085 C136.2697,32.5085 136.3012,32.54 136.3012,32.579 L136.3012,32.856 C136.3012,32.895 136.2697,32.9265 136.2307,32.9265" id="Fill-117" fill="#1D1E1C"></path>
                                <path d="M136.32665,31.4778 L136.32665,32.3368 C136.32665,32.3758 136.29515,32.4073 136.25565,32.4073 L132.77865,32.4058 C132.73965,32.4058 132.70815,32.3743 132.70815,32.3353 L132.70815,31.4763 C132.70815,31.2698 132.87565,31.1023 133.08215,31.1023 L135.95265,31.1038 C136.15915,31.1038 136.32665,31.2713 136.32665,31.4778" id="Fill-119" fill="#1D1E1C"></path>
                                <line x1="136.23095" y1="32.9265" x2="132.80395" y2="32.9265" id="Fill-121" fill="#1D1E1C"></line>
                                <polygon id="Fill-123" fill="#B6BECA" points="132.9824 33.2881 132.9824 33.3976 136.0519 33.3976 136.0519 33.2891"></polygon>
                                <path d="M134.5171,33.0908 L133.0051,33.0908 C133.0051,33.0908 132.8191,33.1133 132.8191,33.2023 C132.8191,33.2903 133.0051,33.3098 133.0051,33.3098 L136.0296,33.3108 C136.0296,33.3108 136.2151,33.2913 136.2151,33.2033 C136.2151,33.1143 136.0296,33.0918 136.0296,33.0918 L134.5171,33.0908 Z" id="Fill-125" fill="#C3CBD8"></path>
                                <path d="M65.917,61.41115 C65.8945,61.53615 65.837,61.65265 65.7555,61.75215 C66.022,61.80865 66.288,61.87065 66.5535,61.94165 C66.955,61.99365 67.1535,62.33365 67.1475,62.67765 C67.16,63.08565 66.9055,63.49565 66.4245,63.43165 C63.199,63.50965 59.95,63.01215 56.717,62.92265 C55.5105,62.98665 54.3035,63.04765 53.0995,63.04915 C52.608,63.10365 52.117,63.17165 51.627,63.26565 C50.8325,63.41915 50.426,62.42265 50.8795,61.99265 C50.9605,61.71615 51.188,61.49615 51.5665,61.51465 C51.757,61.52465 51.9475,61.52815 52.1375,61.53365 C52.1165,61.47615 52.104,61.41615 52.095,61.35615 C48.3125,61.79315 45.7805,62.58915 45.7805,63.50015 C45.7805,64.88065 51.6005,66.00015 58.7805,66.00015 C65.96,66.00015 71.7805,64.88065 71.7805,63.50015 C71.7805,62.62665 69.448,61.85815 65.917,61.41115" id="Fill-127" fill="#000000"></path>
                                <path d="M9.3076,28.3628 C9.3076,28.3628 9.9571,18.2488 10.3806,12.0228 C10.3921,12.0148 10.4786,8.8908 10.4116,8.3263 C10.0776,5.5018 9.6651,0.5043 5.6661,0.1098 C1.6671,-0.2847 0.5671,3.3223 0.5866,6.0153 C0.5646,6.0308 0.3161,8.6443 0.3771,12.1223 C-0.0164,19.0518 0.7181,30.9623 0.9336,33.0343 C1.2131,35.7128 7.4351,47.1468 10.7336,52.0153 C10.8731,51.9938 14.6171,48.1663 15.9161,46.5973 L9.3076,28.3628 Z" id="Fill-129" fill="#3C3C3B"></path>
                                <polygon id="Fill-131" fill="#87BECE" points="11.96705 53.48925 16.77205 48.07625 16.14405 47.11525 11.13855 52.75375"></polygon>
                            </g>
                            <g id="Group-136" transform="translate(15.500000, 75.125000)">
                                <mask id="mask-10" fill="white">
                                    <use xlink:href="#path-9"></use>
                                </mask>
                                <g id="Clip-135"></g>
                                <path d="M8.8452,3.3562 C11.8632,5.2337 12.3617,8.7877 12.3617,8.7877 C12.4502,9.2647 12.4402,10.7237 12.2532,11.4032 C12.1247,11.8707 11.9517,13.1732 9.7442,14.3007 C9.3167,14.5192 8.8237,14.7647 8.3277,14.6792 C8.2662,14.6682 8.2042,14.6562 8.1747,14.6012 C8.1447,14.5457 8.2377,14.4502 8.2627,14.4422 C9.5537,14.0202 11.4662,13.1657 11.5567,10.0757 C11.5567,10.0757 11.7272,7.2282 9.9052,5.3292 C9.3197,4.7197 8.4822,3.9602 7.8357,3.5737 C7.7412,3.5172 6.8492,3.0257 6.8247,3.1732 C6.7897,3.3837 7.1522,3.5157 7.3332,3.5792 C7.7617,3.7282 8.2887,4.1632 8.4082,4.2597 C9.9547,5.5092 10.3857,6.5097 10.5252,6.7667 C11.1392,7.8972 11.1112,9.7367 11.1132,10.0037 C11.1262,11.6787 10.2092,12.5942 9.8057,13.0332 C9.1182,13.7822 7.5802,14.5832 5.2752,14.0707 C4.7362,13.9507 3.5642,13.5527 2.4097,12.4567 C2.0412,12.1062 1.2977,11.1832 0.9267,10.2967 C0.8182,10.0387 0.6097,9.3957 0.8542,9.4257 C1.0022,9.4442 1.2177,10.0127 1.6197,10.6287 C1.9847,11.1892 2.3577,11.7227 2.8997,12.2012 C3.6212,12.8392 4.4977,13.3477 4.8632,13.4012 C4.9437,13.4137 4.9532,13.3097 4.8737,13.2642 C4.6472,13.1337 4.2047,12.9472 3.8412,12.6842 C3.2707,12.2722 2.2257,11.1867 1.6207,10.1297 C1.3952,9.7357 1.0567,8.8887 0.9907,8.3267 C0.8762,7.3507 0.9112,6.0322 0.9502,5.7857 C1.1777,4.3532 1.9122,3.7047 2.4777,3.3392 C3.0342,2.9797 4.0787,2.9377 4.3497,2.8877 C4.3967,2.8792 4.3697,2.8102 4.3397,2.7952 C4.2902,2.7702 4.2282,2.7592 4.1762,2.7567 C4.1392,2.7547 4.0957,2.7502 4.0522,2.7447 C3.9347,2.7312 0.6342,2.5152 0.6052,6.8647 C0.6027,7.2552 0.2922,6.9302 0.2537,6.6782 C0.1482,5.9837 0.1637,5.3832 0.2997,4.7932 C0.5512,3.7057 1.2057,2.9712 1.8627,2.5562 C2.8242,1.9497 4.1892,1.8687 5.3557,2.0397 C6.3477,2.1847 7.1607,2.3077 8.8452,3.3562 M0.5182,8.8772 C0.6922,8.9717 0.7357,8.8312 0.7222,8.7562 C0.6937,8.6022 0.6857,8.4532 0.6757,8.2517 C0.6657,8.0652 0.6477,7.8417 0.5387,7.6557 C0.4837,7.5612 0.4057,7.4922 0.3147,7.4602 C-0.0908,7.3157 0.0417,8.0722 0.1032,8.3297 C0.1302,8.4422 0.1722,8.5592 0.2502,8.6572 C0.3237,8.7502 0.4212,8.8252 0.5182,8.8772" id="Fill-134" fill="#D60926" mask="url(#mask-10)"></path>
                            </g>
                            <path d="M26.20535,89.4553 C26.24035,89.4643 26.25785,89.4683 26.29285,89.4768 C26.32535,89.5743 26.34135,89.6228 26.37385,89.7203 C26.37485,89.7203 26.37535,89.7203 26.37585,89.7208 C26.40935,89.6393 26.42535,89.5988 26.45885,89.5178 C26.49435,89.5263 26.51185,89.5303 26.54785,89.5393 C26.54735,89.6553 26.54685,89.7138 26.54635,89.8303 C26.52335,89.8243 26.51135,89.8213 26.48835,89.8158 C26.48885,89.7188 26.48885,89.6703 26.48935,89.5733 C26.48885,89.5733 26.48835,89.5728 26.48785,89.5728 C26.45185,89.6613 26.43385,89.7053 26.39785,89.7938 C26.37935,89.7893 26.36985,89.7873 26.35135,89.7823 C26.31635,89.6768 26.29885,89.6238 26.26435,89.5178 C26.26385,89.5178 26.26335,89.5178 26.26235,89.5178 C26.26185,89.6148 26.26185,89.6633 26.26135,89.7603 C26.23835,89.7548 26.22685,89.7518 26.20385,89.7463 C26.20485,89.6298 26.20485,89.5718 26.20535,89.4553 M25.92285,89.3848 C26.01785,89.4088 26.06535,89.4208 26.16085,89.4443 C26.16085,89.4633 26.16085,89.4723 26.16085,89.4913 C26.12435,89.4823 26.10635,89.4773 26.06985,89.4688 C26.06935,89.5663 26.06935,89.6153 26.06885,89.7128 C26.04585,89.7068 26.03435,89.7043 26.01135,89.6983 L26.01285,89.4543 C25.97635,89.4453 25.95835,89.4408 25.92235,89.4318 C25.92285,89.4133 25.92285,89.4038 25.92285,89.3848" id="Fill-137" fill="#D60926"></path>
                            <g id="Group-166" transform="translate(15.500000, 75.125000)">
                                <g id="Group-141">
                                    <mask id="mask-12" fill="white">
                                        <use xlink:href="#path-11"></use>
                                    </mask>
                                    <g id="Clip-140"></g>
                                    <path d="M8.90405,6.78685 C8.84505,6.74385 8.79205,6.70435 8.74955,6.67235 C8.59405,6.55385 8.21255,6.31785 7.90855,6.12585 C7.73955,6.01935 7.55455,5.90835 7.53355,5.88335 C7.49755,5.84035 7.42955,5.46735 7.39505,5.29585 C7.37755,5.20685 7.36305,5.13685 7.35555,5.10635 C7.32855,4.99635 7.29455,4.92785 7.20055,4.90335 C7.20005,4.90335 7.19355,4.90135 7.19305,4.90135 C7.16005,4.89385 6.70955,4.84535 5.98605,4.76485 C5.50005,4.71035 5.00305,4.65485 4.97205,4.64835 C4.93305,4.63985 4.90805,4.65235 4.59805,5.05635 C4.50505,5.17735 4.38805,5.33385 4.37105,5.34235 C4.36255,5.34635 4.29405,5.35285 4.22505,5.36085 C4.02905,5.38385 3.66455,5.42685 3.35505,5.50135 C3.01305,5.58435 2.35905,5.78835 2.31005,5.87135 C2.29205,5.90235 2.29205,5.94085 2.30905,5.97785 C2.33205,6.02735 2.38405,6.06735 2.44705,6.08435 C2.46055,6.08785 2.47505,6.09035 2.48905,6.09185 C2.55455,6.09885 4.63305,6.45135 5.86255,6.69935 C6.16905,6.76185 6.55855,6.85485 7.02305,6.97435 C8.16555,7.26835 9.35555,7.60335 9.42455,7.63335 C9.49455,7.66485 9.56555,7.66035 9.61455,7.62135 C9.65455,7.58985 9.67605,7.54035 9.67508338,7.48135 C9.67205,7.36535 9.42105,7.16735 8.90405,6.78685" id="Fill-139" fill="#FFFFFF" mask="url(#mask-12)"></path>
                                </g>
                                <g id="Group-144">
                                    <mask id="mask-14" fill="white">
                                        <use xlink:href="#path-13"></use>
                                    </mask>
                                    <g id="Clip-143"></g>
                                    <path d="M4.937,7.8594 C4.9285,7.7414 4.912,7.6789 4.878,7.6444 C4.861,7.6274 4.838,7.6154 4.818,7.6129 C4.8165,7.6124 4.8145,7.6124 4.8135,7.6124 C4.7625,7.6089 4.7425,7.6559 4.729,7.6879 C4.726,7.6964 4.721,7.7044 4.6935,7.7349 C4.3065,8.1709 4.2585,8.3469 4.2375,8.5164 C4.2205,8.6519 4.265,8.8294 4.3405,8.9284 C4.3755,8.9739 4.421,9.0039 4.466,9.0094 C4.5,9.0144 4.528,9.0034 4.5425,8.9799 C4.555,8.9599 4.548,8.9259 4.5465,8.9009 C4.5425,8.8359 4.6225,8.7074 4.6925,8.5814 C4.8085,8.3714 4.954,8.1109 4.937,7.8594" id="Fill-142" fill="#FFFFFF" mask="url(#mask-14)"></path>
                                </g>
                                <g id="Group-147">
                                    <mask id="mask-16" fill="white">
                                        <use xlink:href="#path-15"></use>
                                    </mask>
                                    <g id="Clip-146"></g>
                                    <path d="M4.89065,7.48145 C4.89265,7.48195 4.89565,7.48245 4.89815,7.48245 C4.99815,7.49345 5.08565,7.39895 5.13165,7.34645 C5.22465,7.24095 5.33665,7.09595 5.38915,7.02445 C5.40065,7.00895 5.42565,6.96695 5.43065,6.95295 C5.44165,6.92345 5.43965,6.89845 5.42665,6.87745 C5.41015,6.85145 5.37915,6.83695 5.32965,6.83295 C5.20915,6.82295 4.96265,6.87045 4.81515,7.04195 C4.74865,7.11895 4.71515,7.22095 4.72865,7.30795 C4.74165,7.39645 4.80715,7.46645 4.89065,7.48145" id="Fill-145" fill="#FFFFFF" mask="url(#mask-16)"></path>
                                </g>
                                <g id="Group-150">
                                    <mask id="mask-18" fill="white">
                                        <use xlink:href="#path-17"></use>
                                    </mask>
                                    <g id="Clip-149"></g>
                                    <path d="M7.12525,9.3218 C7.09975,9.3168 7.07825,9.3208 7.07775,9.3213 C6.99525,9.3428 6.82025,9.3128 6.73925,9.2973 C6.60775,9.2718 6.47775,9.2128 6.32825,9.1453 C6.14025,9.0598 5.92775,8.9633 5.66075,8.9088 C5.61525,8.8993 5.52275,8.8848 5.52275,8.8848 C5.52075,8.8773 5.83375,8.6433 5.96525,8.5373 C6.05525,8.4648 6.21375,8.3268 6.25775,8.2163 C6.27425,8.1738 6.29625,8.0923 6.25575,8.0233 C6.22825,7.9778 6.17975,7.9473 6.11075,7.9333 C6.10025,7.9308 5.31625,7.7653 5.31625,7.7653 C5.29325,7.7608 5.25875,7.7463 5.24175,7.7393 C5.23725,7.7378 5.23375,7.7363 5.23175,7.7353 C5.14925,7.7048 5.09075,7.7208 5.07625,7.7788 C5.06325,7.8318 5.09075,7.9053 5.14275,7.9578 C5.19575,8.0103 5.28225,8.0543 5.40675,8.0913 C5.45075,8.1043 5.49575,8.1153 5.54075,8.1248 C5.64625,8.1468 5.78175,8.1553 5.78175,8.1553 C5.78375,8.1618 5.35875,8.4483 5.16725,8.5818 C5.15425,8.5908 5.14025,8.6003 5.12625,8.6103 C5.02425,8.6803 4.90775,8.7593 4.85425,8.8623 C4.80825,8.9518 4.81225,9.0428 4.86575,9.1103 C4.89875,9.1518 4.93175,9.1733 4.97675,9.1828 C5.01025,9.1898 5.04825,9.1898 5.10125,9.1908 C5.20175,9.1918 5.35425,9.1938 5.60625,9.2448 C5.81075,9.2868 6.04925,9.3548 6.31625,9.4473 C6.41225,9.4808 6.50675,9.5068 6.59525,9.5238 C6.81525,9.5673 7.00225,9.5593 7.12125,9.5008 C7.12325,9.4998 7.12425,9.4993 7.12575,9.4988 C7.16075,9.4818 7.22675,9.4503 7.19775,9.3798 C7.18525,9.3488 7.15925,9.3283 7.12525,9.3218" id="Fill-148" fill="#FFFFFF" mask="url(#mask-18)"></path>
                                </g>
                                <g id="Group-153">
                                    <mask id="mask-20" fill="white">
                                        <use xlink:href="#path-19"></use>
                                    </mask>
                                    <g id="Clip-152"></g>
                                    <path d="M4.2722,7.9011 C4.2742,7.8971 4.4632,7.5171 4.1067,7.0861 C3.9302,6.8716 3.6832,6.7336 3.4122,6.6971 C3.2682,6.6781 3.1252,6.6891 3.0302,6.7271 C2.9257,6.7681 2.8972,6.8381 2.8922,6.8886 C2.8862,6.9501 2.9107,7.0066 2.9232,7.0246 C2.9382,7.0461 2.9652,7.0721 3.0362,7.0816 C3.0702,7.0861 3.1622,7.0831 3.1622,7.0831 C3.1667,7.0921 2.7827,7.5411 2.5637,8.2416 C2.4037,8.7521 2.3597,9.0676 2.4287,9.2076 C2.4452,9.2406 2.4677,9.2636 2.4962,9.2761 C2.5047,9.2806 2.5132,9.2831 2.5217,9.2841 C2.6622,9.3026 2.8047,8.9461 3.0012,8.4501 C3.0297,8.3786 3.0592,8.3046 3.0892,8.2291 C3.4157,7.4176 3.4162,7.1301 3.4162,7.1301 C3.4252,7.1216 3.8752,7.2971 3.9182,7.6096 C3.9547,7.8691 3.7117,8.0151 3.4737,8.0661 C3.4112,8.0791 3.3492,8.0811 3.2992,8.0831 C3.2522,8.0851 3.2152,8.0861 3.1902,8.0956 C3.1597,8.1066 3.1642,8.1321 3.1677,8.1426 C3.1827,8.1906 3.2732,8.2526 3.4192,8.2746 C3.4237,8.2756 3.4257,8.2756 3.4302,8.2761 C3.5322,8.2901 4.0517,8.3366 4.2722,7.9011" id="Fill-151" fill="#FFFFFF" mask="url(#mask-20)"></path>
                                </g>
                                <g id="Group-156">
                                    <mask id="mask-22" fill="white">
                                        <use xlink:href="#path-21"></use>
                                    </mask>
                                    <g id="Clip-155"></g>
                                    <path d="M7.0281,10.33105 C7.0336,10.26355 7.0236,10.21005 6.9991,10.17355 C6.9851,10.15305 6.9666,10.13805 6.9451,10.13105 C6.9366,10.12805 6.9286,10.12605 6.9206,10.12505 C6.8561,10.11705 6.8131,10.17505 6.7546,10.25455 C6.6971,10.33205 6.6191,10.43755 6.4871,10.53005 C6.3386,10.63405 6.1221,10.71255 6.1216,10.71155 C6.1086,10.69605 6.1791,10.41955 6.1706,10.32455 C6.1626,10.23005 6.1331,10.15455 6.0841,10.09955 C6.0261,10.03505 5.9541,10.01355 5.9041,10.00805 C5.8386,9.99955 5.7806,10.01305 5.7591,10.03005 C5.7456,10.04105 5.7401,10.05455 5.7426,10.07105 C5.7466,10.09255 5.7646,10.11605 5.7986,10.14205 C5.8596,10.18955 5.8496,10.21755 5.8351,10.26005 C5.8326,10.26805 5.8296,10.27705 5.8276,10.28455 C5.8171,10.32155 5.8021,10.35955 5.7881,10.39855 C5.7346,10.54605 5.6796,10.69805 5.7296,10.85705 C5.7706,10.98705 5.8731,11.07155 6.0111,11.08805 C6.0376,11.09105 6.0651,11.09205 6.0931,11.09055 C6.2466,11.08105 6.5961,10.78255 6.5961,10.78255 C6.6116,10.78855 6.7336,11.15405 6.7906,11.21905 C6.8321,11.26655 6.8791,11.29705 6.9171,11.30105 C6.9406,11.30355 6.9591,11.29605 6.9691,11.27905 C6.9781,11.26255 6.9841,11.23005 6.9591,11.16955 C6.9201,11.07455 6.9696,10.74305 7.0021,10.52355 C7.0146,10.44155 7.0251,10.37105 7.0281,10.33105" id="Fill-154" fill="#FFFFFF" mask="url(#mask-22)"></path>
                                </g>
                                <g id="Group-159">
                                    <mask id="mask-24" fill="white">
                                        <use xlink:href="#path-23"></use>
                                    </mask>
                                    <g id="Clip-158"></g>
                                    <path d="M8.8816,10.2849 C8.8471,10.2424 8.7776,10.2374 8.5221,10.2214 C8.4511,10.2169 8.3646,10.2114 8.2616,10.2034 C8.2321,10.2014 8.1816,10.1989 8.1181,10.1964 C8.0831,10.1949 8.0441,10.1934 8.0021,10.1914 C8.0071,10.1824 8.0096,10.1779 8.0146,10.1689 C8.0586,10.0869 8.1051,10.0034 8.1211,9.9454 C8.1391,9.8829 8.1306,9.8209 8.0981,9.7749 C8.0746,9.7414 8.0396,9.7199 8.0036,9.7159 C7.9696,9.7119 7.9376,9.7234 7.9106,9.7479 C7.8711,9.7839 7.6951,10.1059 7.5831,10.1594 C7.5611,10.1699 7.3826,10.1309 7.2796,10.0889 C7.2581,10.0799 7.2251,10.0674 7.1946,10.0639 L7.1916,10.0639 C7.1441,10.0589 7.1091,10.0769 7.0886,10.1179 C7.0756,10.1429 7.0746,10.1759 7.0856,10.2099 C7.0996,10.2534 7.1311,10.2954 7.1741,10.3279 C7.2376,10.3764 7.4236,10.4304 7.4311,10.4464 C7.4711,10.5314 7.2126,11.1619 7.2526,11.5169 C7.2596,11.5839 7.2756,11.6304 7.2991,11.6559 C7.3101,11.6674 7.3231,11.6744 7.3361,11.6759 C7.3716,11.6794 7.4066,11.6414 7.4281,11.5759 C7.4456,11.5224 7.6946,10.5964 7.8566,10.4834 C7.9961,10.3864 8.4911,10.4299 8.7176,10.3889 C8.7226,10.3884 8.7256,10.3879 8.7306,10.3869 C8.7951,10.3764 8.8571,10.3639 8.8741,10.3519 C8.8866,10.3429 8.8936,10.3304 8.8936,10.3169 C8.8936,10.3059 8.8896,10.2949 8.8816,10.2849" id="Fill-157" fill="#FFFFFF" mask="url(#mask-24)"></path>
                                </g>
                                <g id="Group-162">
                                    <mask id="mask-26" fill="white">
                                        <use xlink:href="#path-25"></use>
                                    </mask>
                                    <g id="Clip-161"></g>
                                    <path d="M5.71705,10.2705 C5.71455,10.2605 5.70305,10.243 5.68355,10.232 C5.66805,10.2235 5.65055,10.218 5.61205,10.2205 C5.60155,10.2215 5.58905,10.2225 5.57405,10.2235 C5.54605,10.226 5.46255,10.236 5.45855,10.2315 C5.43705,10.2055 5.52555,9.944 5.55155,9.8405 C5.60605,9.6255 5.63355,9.518 5.59905,9.454 C5.58705,9.432 5.56855,9.4165 5.54155,9.405 C5.53555,9.4025 5.52905,9.4005 5.52255,9.4 C5.38155,9.3845 5.15205,10.1365 5.01805,10.228 C5.01455,10.2305 4.99605,10.227 4.98505,10.2265 C4.83355,10.22 4.49755,10.2055 4.48405,10.1845 C4.46855,10.1605 4.56555,9.9445 4.61455,9.809 C4.61505,9.807 4.61555,9.806 4.61605,9.804 C4.66405,9.6725 4.75355,9.427 4.73905,9.2985 C4.72955,9.2115 4.69005,9.1875 4.66705,9.181 C4.66355,9.18 4.66005,9.1795 4.65605,9.179 C4.50305,9.1625 4.20155,9.6485 4.00055,10.123 C3.99155,10.1215 3.98705,10.121 3.97805,10.1195 C3.95755,10.117 3.94755,10.1155 3.92705,10.113 C3.81755,10.098 3.71355,10.0855 3.65055,10.091 C3.55205,10.1 3.49605,10.14 3.49355,10.203 C3.49105,10.2595 3.53255,10.3285 3.60805,10.3925 C3.67205,10.4465 3.83955,10.502 3.85055,10.525 C3.88405,10.5925 3.66955,11.172 3.76605,11.3785 C3.78855,11.4265 3.82105,11.4615 3.86205,11.4825 C3.88855,11.496 3.91405,11.5045 3.93755,11.5075 C4.10755,11.53 4.18355,11.288 4.22555,11.104 C4.26255,10.9425 4.30405,10.6425 4.35405,10.606 C4.40855,10.566 4.91155,10.56 4.92055,10.5695 C4.94955,10.601 4.81755,11.191 4.97405,11.2875 C5.00405,11.306 5.03555,11.32 5.06505,11.3235 C5.13355,11.332 5.19605,11.295 5.24105,11.2195 C5.30155,11.1175 5.33105,10.9505 5.35355,10.8015 C5.37205,10.6825 5.37855,10.4995 5.41205,10.4625 C5.45355,10.416 5.63055,10.3845 5.67905,10.3485 C5.71055,10.3255 5.72405,10.297 5.71705,10.2705" id="Fill-160" fill="#FFFFFF" mask="url(#mask-26)"></path>
                                </g>
                                <g id="Group-165">
                                    <mask id="mask-28" fill="white">
                                        <use xlink:href="#path-27"></use>
                                    </mask>
                                    <g id="Clip-164"></g>
                                    <path d="M9.0044,9.08155 C8.9669,9.06755 8.9369,9.04505 8.9159,9.01355 C8.8709,8.94605 8.8924,8.88855 8.9364,8.77455 C8.9539,8.72905 8.9734,8.67755 8.9939,8.61355 C9.0174,8.53805 9.0004,8.48405 8.9824,8.45205 C8.9604,8.41355 8.9284,8.39055 8.9059,8.38205 C8.8684,8.36805 8.8169,8.38805 8.8069,8.38755 C8.7639,8.38505 8.6754,8.33355 8.6044,8.31905 C8.2539,8.24655 7.8414,8.38505 7.6629,8.63605 C7.5764,8.75955 7.5564,8.89405 7.6064,9.02505 C7.6099,9.03505 7.6189,9.05455 7.6189,9.05505 C7.6189,9.05555 7.6084,9.05505 7.6054,9.05555 C7.5534,9.06655 7.4884,9.06705 7.4119,9.05055 C7.2924,9.02455 7.1589,8.96605 7.0414,8.91405 C6.9819,8.88805 6.8739,8.84305 6.8739,8.84305 C6.8724,8.83055 7.2739,8.55805 7.3944,8.46405 C7.4479,8.42255 7.5359,8.34655 7.5529,8.32355 C7.6079,8.24955 7.6144,8.16755 7.5699,8.09255 C7.5354,8.03505 7.4549,7.95805 7.2649,7.91655 C7.2354,7.90955 7.2034,7.90455 7.1704,7.90005 C6.8694,7.85955 6.6674,7.82905 6.5844,7.81305 C6.5464,7.80605 6.5314,7.79855 6.5054,7.78405 C6.4894,7.77505 6.4754,7.76755 6.4584,7.76255 C6.4559,7.76205 6.4549,7.76155 6.4524,7.76105 C6.4134,7.75205 6.3809,7.76205 6.3599,7.78955 C6.3344,7.82255 6.3304,7.88005 6.3489,7.94155 C6.3794,8.04005 6.4834,8.10905 6.5634,8.13855 C6.6044,8.15405 6.6599,8.16905 6.7279,8.18455 C6.8559,8.21305 7.0729,8.24505 7.0729,8.24505 C7.0744,8.25005 6.9074,8.34005 6.8114,8.39055 C6.6529,8.47455 6.4899,8.56105 6.3729,8.65605 C6.2434,8.76055 6.1814,8.88855 6.2189,8.97405 C6.2379,9.01655 6.2814,9.04605 6.3289,9.04805 C6.3919,9.05055 6.4609,9.06055 6.5394,9.07755 C6.6424,9.10055 6.7494,9.13455 6.8534,9.16705 C6.9569,9.19955 7.0644,9.23305 7.1679,9.25555 C7.2969,9.28355 7.4019,9.29055 7.4969,9.27855 C7.6159,9.26255 7.7054,9.16655 7.7084,9.16555 C7.7124,9.16455 7.7489,9.19505 7.7719,9.20655 C7.8194,9.23055 7.8699,9.24855 7.9209,9.25955 C8.1469,9.30655 8.3544,9.21405 8.4784,9.15805 C8.5054,9.14605 8.5404,9.12805 8.5449,9.13005 C8.5744,9.14255 8.7189,9.29805 8.8779,9.32955 C8.8794,9.33005 8.8799,9.33005 8.8814,9.33055 C8.9644,9.34655 9.1449,9.35405 9.2054,9.30005 C9.2204,9.28705 9.2269,9.27105 9.2254,9.25255 C9.2229,9.21105 9.1814,9.14705 9.0044,9.08155 M8.5754,8.60955 C8.5004,8.74755 8.4969,8.81455 8.4814,8.83455 C8.4594,8.86255 8.1709,8.91655 8.0714,8.89555 C8.0474,8.89105 8.0414,8.88355 8.0399,8.88155 C8.0364,8.87655 8.0384,8.86805 8.0394,8.86455 C8.1224,8.61705 8.4774,8.60405 8.5754,8.60955" id="Fill-163" fill="#FFFFFF" mask="url(#mask-28)"></path>
                                </g>
                            </g>
                            <g id="Group-171" transform="translate(65.500000, 164.625000)" fill="#BEBEBE">
                                <path d="M23.09105,14.31005 C18.80655,15.51855 16.72355,16.15805 12.72355,17.63055 C11.80905,16.77055 11.36155,16.36155 10.48205,15.57705 C10.43855,13.74755 10.48805,12.95105 10.62005,11.39605 C10.70355,10.23305 10.74355,9.47555 10.69555,9.06555 C10.64855,8.65505 10.53205,8.29505 10.34455,7.98355 C10.15755,7.67205 9.87855,7.37005 9.50705,7.07905 C8.95305,6.64505 8.36405,6.36705 7.74805,6.25155 C7.13255,6.13505 6.53955,6.16105 5.97205,6.32555 C5.37655,6.49805 4.92505,6.75955 4.61255,7.10505 C4.30005,7.45005 4.06555,7.87555 3.90855,8.38105 C2.47255,8.01855 1.75905,7.84455 0.34755,7.51655 C0.51755,6.87955 0.72005,6.38755 0.96405,6.05605 C1.20755,5.72405 1.54805,5.41255 1.98855,5.12455 C2.42955,4.83655 3.00455,4.57105 3.72055,4.33505 C4.66355,4.02405 5.67005,3.87805 6.73905,3.90805 C7.80805,3.93905 8.85205,4.13655 9.85505,4.48905 C10.85855,4.84205 11.73455,5.32355 12.47305,5.91905 C13.11605,6.43705 13.58355,6.95055 13.88055,7.46155 C14.17755,7.97205 14.34405,8.52655 14.38755,9.12805 C14.43055,9.72955 14.30705,10.62205 14.07355,11.87805 C13.95255,12.64755 13.89855,13.04005 13.81455,13.86355 C13.86955,13.91105 13.89705,13.93505 13.95205,13.98255 C16.58155,13.22055 17.92305,12.86205 20.64605,12.15955 C21.61705,12.99405 22.10455,13.42155 23.09105,14.31005" id="Fill-167"></path>
                                <path d="M36.2637,10.8662 C34.9352,11.2082 34.2707,11.3762 32.9462,11.7127 C30.6522,9.6382 29.5277,8.6712 27.1777,6.6037 C26.4517,5.9652 25.7467,5.5147 25.0722,5.2652 C24.3972,5.0162 23.7302,4.9757 23.0787,5.1442 C22.2032,5.3707 21.8382,5.7647 21.9747,6.3157 C22.1107,6.8667 22.7832,7.6477 23.9732,8.6612 C25.8807,10.2857 26.8162,11.0847 28.7202,12.7942 C27.4097,13.1342 26.7577,13.3057 25.4637,13.6552 C21.3102,9.9252 19.3952,8.4697 15.0842,4.8917 C16.1097,4.6132 16.6252,4.4737 17.6622,4.1912 C18.3977,4.6137 18.7622,4.8217 19.4857,5.2337 C19.5617,5.2142 19.5992,5.2047 19.6752,5.1847 C19.5242,4.6842 19.6232,4.2242 19.9792,3.8072 C20.3352,3.3907 20.9247,3.0607 21.7532,2.8282 C23.6427,2.2977 25.4732,2.4217 27.1662,3.1812 L27.4722,3.0957 C27.3282,2.5492 27.4492,2.0432 27.8422,1.5847 C28.2352,1.1257 28.8512,0.7602 29.6907,0.5002 C31.1397,0.0502 32.5477,0.0117 33.8807,0.3892 C35.2137,0.7667 36.5107,1.6262 37.7407,2.8712 C40.2432,5.4042 41.4097,6.5127 43.8107,8.8152 C42.5002,9.2002 41.8392,9.3847 40.5132,9.7457 C38.3232,7.6947 37.2487,6.7092 34.9817,4.5367 C34.2817,3.8652 33.5947,3.3887 32.9297,3.1277 C32.2647,2.8672 31.5997,2.8307 30.9427,3.0187 C30.0967,3.2612 29.7087,3.6697 29.7727,4.2307 C29.8367,4.7917 30.3907,5.5432 31.4102,6.4672 C33.3822,8.2552 34.3347,9.1007 36.2637,10.8662" id="Fill-169"></path>
                            </g>
                        </g>
                    </g>
                </g>
            </g>
        </g>
    </g>
</svg>