<svg height="512" viewBox="0 0 64 64" width="512" xmlns="http://www.w3.org/2000/svg"><g id="Flat"><g id="Color"><g><rect fill="#fcbc04" height="52" rx="4" width="34" x="7" y="3"/><path d="m41 22v-1h-27v-18h-3a4 4 0 0 0 -4 4v44a4 4 0 0 0 4 4h26a4 4 0 0 0 4-4v-16h-21l-1.136 10.034a14.941 14.941 0 0 1 -4.864-11.034v-3.975a4 4 0 0 1 3.32-3.942z" fill="#e59730"/><path d="m11 3h26a4 4 0 0 1 4 4v14a0 0 0 0 1 0 0h-34a0 0 0 0 1 0 0v-14a4 4 0 0 1 4-4z" fill="#f9e109"/><g><path d="m20 35h30v24h-30z" fill="#d0d8da"/><path d="m36 35-3 19.607a11.994 11.994 0 0 1 -9-11.607v-8h-4v24h30v-24z" fill="#93999a"/><path d="m20 35h30v6h-30z" fill="#aae1f9"/><rect fill="#aae1f9" height="9" rx="3" width="20" x="25" y="45"/><path d="m42 45h-14l9 9h5a3 3 0 0 0 3-3v-3a3 3 0 0 0 -3-3z" fill="#57b7eb"/><g><path d="m42 45h-7.53l-1.377 9h8.907a3 3 0 0 0 3-3v-3a3 3 0 0 0 -3-3z" fill="#57b7eb"/><path d="m28 54h3.244a12.033 12.033 0 0 1 -6.227-6.171c0 .058-.017.113-.017.171v3a3 3 0 0 0 3 3z" fill="#57b7eb"/><path d="m42 45h-7.53l-.859 5.611 3.389 3.389h5a3 3 0 0 0 3-3v-3a3 3 0 0 0 -3-3z" fill="#4891d3"/></g><path d="m36.5 35-.5 3h-10a3 3 0 0 1 -3-3h-3v6h30v-6z" fill="#57b7eb"/></g><g><rect fill="#57b7eb" height="30" rx="4" width="20" x="37" y="31"/><path d="m53 58a12 12 0 0 1 -12-12v-14a3.977 3.977 0 0 1 .141-1h-.141a4 4 0 0 0 -4 4v22a4 4 0 0 0 4 4h12a3.992 3.992 0 0 0 3.859-3z" fill="#4891d3"/><path d="m53 31h-11.571l15.571 21.8v-17.8a4 4 0 0 0 -4-4z" fill="#aae1f9"/><circle cx="47" cy="46" fill="#f9e109" r="5"/><path d="m42 46a5 5 0 0 0 10 0c0-.08-.02-.154-.023-.233l-3.152-4.412a4.979 4.979 0 0 0 -6.825 4.645z" fill="#fcbc04"/><path d="m49 48a4.976 4.976 0 0 1 -4.876-6.08 4.995 4.995 0 1 0 7.752 5.16 4.967 4.967 0 0 1 -2.876.92z" fill="#e59730"/><g fill="#f9e109"><path d="m55.95 21.05a1 1 0 0 1 -.707-.293 6.01 6.01 0 0 0 -8.486 0 1 1 0 1 1 -1.414-1.414 8.01 8.01 0 0 1 11.314 0 1 1 0 0 1 -.707 1.707z"/><path d="m53.121 23.879a1 1 0 0 1 -.707-.293 2.047 2.047 0 0 0 -2.828 0 1 1 0 0 1 -1.414-1.414 4.093 4.093 0 0 1 5.656 0 1 1 0 0 1 -.707 1.707z"/><circle cx="51" cy="26" r="1"/></g><path d="m49 58h-4a1 1 0 0 1 0-2h4a1 1 0 0 1 0 2z" fill="#93999a"/><circle cx="41" cy="35" fill="#93999a" r="1"/><circle cx="45" cy="35" fill="#d0d8da" r="1"/><path d="m47 47a1 1 0 0 1 -1-1v-5a1 1 0 0 1 2 0v5a1 1 0 0 1 -1 1z" fill="#f9e109"/><path d="m47 52a5.973 5.973 0 0 1 -4.5-9.931 1 1 0 1 1 1.5 1.325 3.887 3.887 0 0 0 -1 2.606 4 4 0 0 0 8 0 3.887 3.887 0 0 0 -1-2.606 1 1 0 1 1 1.5-1.325 5.973 5.973 0 0 1 -4.5 9.931z" fill="#f9e109"/><path d="m46.372 56h-1.372a1 1 0 0 0 0 2h4a.98.98 0 0 0 .808-.443 11.913 11.913 0 0 1 -3.436-1.557z" fill="#656b76"/><path d="m41 34a1 1 0 0 0 0 2z" fill="#656b76"/><path d="m44.063 34.688a.985.985 0 0 0 -.063.312 1 1 0 0 0 1 1z" fill="#93999a"/></g><rect fill="#d0d8da" height="10" rx="2" width="4" x="12" y="25"/><path d="m23 17a12 12 0 0 1 -12-12v-2a4 4 0 0 0 -4 4v14h34v-4z" fill="#fcbc04"/><rect fill="#d0d8da" height="6" rx="2" width="4" x="12" y="9"/><g fill="#93999a"><path d="m12 11v2a1.994 1.994 0 0 0 3.475 1.341 12.036 12.036 0 0 1 -1.988-2.047 2.04 2.04 0 0 1 -.182-.242 12.054 12.054 0 0 1 -1.113-1.863 1.935 1.935 0 0 0 -.192.811z"/><path d="m14 35c.018 0 .035-.005.053-.005-.022-.331-.053-.659-.053-.995v-3.976a4 4 0 0 1 1.957-3.435 2 2 0 0 0 -3.957.411v6a2 2 0 0 0 2 2z"/></g></g></g></g></svg>